/* XPM */
static char *result[] = {
/* columns rows colors chars-per-pixel */
"64 96 183 2 ",
"   c #161B29",
".  c #1A1E2C",
"X  c #3C1E23",
"o  c #1C222E",
"O  c #2B2226",
"+  c #23232B",
"@  c #2C2B2A",
"#  c #262126",
"$  c #322224",
"%  c #3F2122",
"&  c #34262A",
"*  c #3E2729",
"=  c #3E292B",
"-  c #372A2A",
";  c #3D3025",
":  c #222631",
">  c #262B36",
",  c #2A2C35",
"<  c #2A2E38",
"1  c #352E36",
"2  c #3B2E35",
"3  c #372F38",
"4  c #2C313A",
"5  c #32353D",
"6  c #3A333B",
"7  c #34393F",
"8  c #3C373B",
"9  c #45261E",
"0  c #47281E",
"q  c #4B2B1C",
"w  c #502F1C",
"e  c #4F301C",
"r  c #4E3A1D",
"t  c #563617",
"y  c #5C3C16",
"u  c #53331A",
"i  c #583719",
"p  c #57391A",
"a  c #5B3B19",
"s  c #583817",
"d  c #603F15",
"f  c #422421",
"g  c #472821",
"h  c #4A2B22",
"j  c #412D2E",
"k  c #4F3223",
"l  c #49372A",
"z  c #523223",
"x  c #5A3B22",
"c  c #523E24",
"v  c #412F31",
"b  c #453534",
"n  c #463C3C",
"m  c #4B3E36",
"M  c #50373B",
"N  c #5E4119",
"B  c #654315",
"V  c #684715",
"C  c #674817",
"Z  c #6A4815",
"A  c #63441A",
"S  c #69471C",
"D  c #66491A",
"F  c #6D4C1B",
"G  c #714E1A",
"H  c #6F501F",
"J  c #75521C",
"K  c #79561D",
"L  c #7C591F",
"P  c #58432C",
"I  c #4A413E",
"U  c #52413F",
"Y  c #6A4A24",
"T  c #704F20",
"R  c #745322",
"E  c #785623",
"W  c #7D5B21",
"Q  c #6E5339",
"!  c #363B42",
"~  c #393E44",
"^  c #443C42",
"/  c #3C4146",
"(  c #3F434A",
")  c #454144",
"_  c #41454C",
"`  c #494749",
"'  c #454A4E",
"]  c #4C4947",
"[  c #574B49",
"{  c #574A46",
"}  c #494D52",
"|  c #464A52",
" . c #4D5255",
".. c #4E5259",
"X. c #595352",
"o. c #555B55",
"O. c #5D5A55",
"+. c #52555C",
"@. c #555A5C",
"#. c #595E59",
"$. c #575358",
"%. c #575151",
"&. c #645E59",
"*. c #615954",
"=. c #5C625C",
"-. c #64635D",
";. c #6C6059",
":. c #5B5E62",
">. c #5F6464",
",. c #5E6169",
"<. c #626761",
"1. c #646A64",
"2. c #6A6C66",
"3. c #65686B",
"4. c #6B6F69",
"5. c #64646A",
"6. c #736A64",
"7. c #687067",
"8. c #6D726B",
"9. c #6F796F",
"0. c #677067",
"q. c #72746E",
"w. c #70786F",
"e. c #6B6E72",
"r. c #726B7E",
"t. c #6C7170",
"y. c #757672",
"u. c #727A71",
"i. c #797C76",
"p. c #747579",
"a. c #777A7A",
"s. c #7B7E7A",
"d. c #797471",
"f. c #815E22",
"g. c #856224",
"h. c #896625",
"j. c #8D6927",
"k. c #896728",
"l. c #8C6929",
"z. c #916D2A",
"x. c #95712B",
"c. c #9A762E",
"v. c #81776E",
"b. c #807E7D",
"n. c #7C827C",
"m. c #788077",
"M. c #888175",
"N. c #81847E",
"B. c #82887E",
"V. c #797B80",
"C. c #7F8280",
"Z. c #838583",
"A. c #858985",
"S. c #8A8A86",
"D. c #8C8D8A",
"F. c #838488",
"G. c #8D928B",
"H. c #91938E",
"J. c #8F9093",
"K. c #959692",
"L. c #969995",
"P. c #999A95",
"I. c #9C9D99",
"U. c #A09E9C",
"Y. c #9DA19B",
"T. c #A2A29E",
"R. c #A4A5A1",
"E. c #A5A9A4",
"W. c #AAA9A6",
"Q. c #ACADA9",
"!. c #AAA7A5",
"~. c #B3ABAA",
"^. c #ACB0AA",
"/. c #B2B2AE",
"(. c #BFB5AB",
"). c #B4B5B1",
"_. c #BDBDBB",
"`. c #B8B9B6",
"'. c #C4B59F",
"]. c #C1C0BE",
"[. c #C7C6C5",
"{. c #D3D2D1",
"}. c None",
/* pixels */
"}.}.}.}.}.}.}.}.}.}.}.}.}.}.}.}.}.}.}.}.}.}.}.}.}.}.}.}.}.}.}.}.}.}.}.}.}.}.}.}.}.}.}.}.}.}.}.}.}.}.}.}.}.}.}.}.}.}.}.}.}.}.}.}.",
"}.}.}.}.}.}.}.}.}.}.}.}.}.}.}.}.}.}.}.}.}.}.}.}.}.}.}.}.}.}.}.}.}.}.}.}.}.}.}.}.}.}.}.}.}.}.}.}.}.}.}.}.}.}.}.}.}.}.}.}.}.}.}.}.",
"}.}.}.}.}.}.}.}.}.}.}.}.}.}.}.}.}.}.}.}.}.}.}.}.}.}.}.}.}.}.}.}.}.}.}.}.}.}.}.}.}.}.}.}.}.}.}.}.}.}.}.}.}.}.}.}.}.}.}.}.}.}.}.}.",
"}.}.}.}.}.}.}.}.}.}.}.}.}.}.}.}.}.}.}.}.}.}.}.}.}.}.}.}.}.}.}.}.}.}.}.}.}.}.}.}.}.}.}.}.}.}.}.}.}.}.}.}.}.}.}.}.}.}.}.}.}.}.}.}.",
"}.}.}.}.}.}.}.}.}.}.}.}.}.}.}.}.}.}.}.}.}.}.}.}.}.}.}.}.}.}.}.}.}.}.}.}.}.}.}.}.}.}.}.}.}.}.}.}.}.}.}.}.}.}.}.}.}.}.}.}.}.}.}.}.",
"}.}.}.}.}.}.}.}.}.}.}.}.}.}.}.}.}.}.}.}.}.}.}.}.}.}.}.}.}.}.}.}.}.}.}.}.}.}.}.}.}.}.}.}.}.}.}.}.}.}.}.}.}.}.}.}.}.}.}.}.}.}.}.}.",
"}.}.}.}.}.}.}.}.}.}.}.}.}.}.}.}.}.}.}.}.}.}.}.}.}.}.}.}.}.}.}.}.}.}.}.}.}.}.}.}.}.}.}.}.}.}.}.}.}.}.}.}.}.}.}.}.}.}.}.}.}.}.}.}.",
"}.}.}.}.}.}.}.}.}.}.}.}.}.}.}.}.}.}.}.}.}.}.}.}.}.}.}.}.}.}.}.}.}.}.}.}.}.}.}.}.}.}.}.}.}.}.}.}.}.}.}.}.}.}.}.}.}.}.}.}.}.}.}.}.",
"}.}.}.}.}.}.}.}.}.}.}.}.}.}.}.}.}.}.}.}.}.}.}.}.}.}.}.}.}.}.}.}.}.}.}.}.}.}.}.}.}.}.}.}.}.}.}.}.}.}.}.}.}.}.}.}.}.}.}.}.}.}.}.}.",
"}.}.}.}.}.}.}.}.}.}.}.}.}.}.}.}.}.}.}.}.}.}.}.}.}.}.}.}.}.}.}.}.}.}.}.}.}.}.}.}.}.}.}.}.}.}.}.}.}.}.}.}.}.}.}.}.}.}.}.}.}.}.}.}.",
"}.}.}.}.}.}.}.}.}.}.}.}.}.}.}.}.}.}.}.}.}.}.}.}.}.}.}.}.}.}.}.}.}.}.}.}.}.}.}.}.}.}.}.}.}.}.}.}.}.}.}.}.}.}.}.}.}.}.}.}.}.}.}.}.",
"}.}.}.}.}.}.}.}.}.}.}.}.}.}.}.}.}.}.}.}.}.}.}.}.}.}.}.}.}.}.}.}.}.}.}.}.}.}.}.}.}.}.}.}.}.}.}.}.}.}.}.}.}.}.}.}.}.}.}.}.}.}.}.}.",
"}.}.}.}.}.}.}.}.}.}.}.}.}.}.}.}.}.}.}.}.}.}.}.}.}.}.}.}.}.}.}.}.}.}.}.}.}.}.}.}.}.}.}.}.}.}.}.}.}.}.}.}.}.}.}.}.}.}.}.}.}.}.}.}.",
"}.}.}.}.}.}.}.}.}.}.}.}.}.}.}.}.}.}.}.}.}.}.}.}.}.}.}.}.}.}.}.}.}.}.}.}.}.}.}.}.}.}.}.}.}.}.}.}.}.}.}.}.}.}.}.}.}.}.}.}.}.}.}.}.",
"}.}.}.}.}.}.}.}.}.}.}.}.}.}.}.}.}.}.}.}.}.}.}.}.}.}.}.}.}.}.}.}.}.}.}.}.}.}.}.}.}.}.}.}.}.}.}.}.}.}.}.}.}.}.}.}.}.}.}.}.}.}.}.}.",
"}.}.}.}.}.}.}.}.}.}.}.}.}.}.}.}.}.}.}.}.}.}.S.S.S.U.T.R.!.~.W.W.~.S.S.^ ^ ^ ^ ^ 6 6 }.}.}.}.}.}.}.}.}.}.}.}.}.}.}.}.}.}.}.}.}.}.",
"}.}.}.}.}.}.}.}.}.}.}.}.}.}.}.}.}.}.S.D.U.U.U.P.L.i.  M.Y.Y.T.Q./.P.q.> W.E.S.q.S.^ ^ ^ ^ 2 }.}.}.}.}.}.}.}.}.}.}.}.}.}.}.}.}.}.",
"}.}.}.}.}.}.}.}.}.}.}.}.}.}.}.}.~.Q.W.T.B.]  .8.N.7.2.+ m.q.i.i.w.A.a.~ R.Z.K.Z.q.y.q.> ..5.) ^ }.S.}.}.}.}.}.}.}.}.}.}.}.}.}.}.",
"}.}.}.}.}.}.}.}.}.}.}.}.}.}.(.~./.W.Y.G.o o H.S.i.y.: S.B.q.q.i.y.8.7.+.C.2.2.9.b.> , D.D.S.U.H.^ 8 y.}.}.}.}.}.}.}.}.}.}.}.}.}.",
"}.}.}.}.}.}.}.}.}.}.}.}.(.U.S.K.S.i.i.8.+ Q.i.q.q.: A.C.=.=.8.4.-.1.> / Y.>.=.q.q.> D.).Z.S.A.A.n.q.o 8 u.M.6.}.}.}.}.}.}.}.}.}.",
"}.}.}.}.}.}.}.}.}.}.'.W.4.    9.y.7.q.s.+.K.u.#.#.,.A.=.=.=.=.<.9.> ..P.i.#.i.y., ! L.1.2.q.q.s.y.s.: R.6 6 u.9.6.}.}.}.}.}.}.}.",
"}.}.}.}.}.}.}.}.S.P._.e.i.o o q.8.y.i.A.4 7.u.u.4 4.( 3./ > 7 ~ 5 : >./ y.y.$.4 U.I.s.q.y.1.y.8.8.4 W.L.y.K.^ 3 1 v.}.}.}.}.}.}.",
"}.}.}.}.}.}.S.R./.P.W.i.a.> 9.o.o.o.t.<   :.e.4.^ K.U.H.E.E. .> > Q.K.! , > _ } K.#.#.a.i.9.<.> < a.`.4.9.i.K.! 3 1 1 }.}.}.}.}.",
"}.}.}.S.K.D.p.D.B.C.q.i.9.} o.@...> :.Q.D.L.s.~ q.L.q.8.q.i.A.q.! T.A.K.Z.Z.D.Z.> > q.#.#.8.4 , R.R.y.y.o.=.=.~ K.n.4 1 1 }.}.}.",
"}.}.r.!.T.i.A.i.q.q.8.w.4 a.A.A.8.4 @.a.m.n.y.5 > S.S.<.1.>.0.<.o ..Q.m.w.y.i.n.n.> 5 q.4 < y.y.N.q.1.=.o.8.~ N.G.A...q.D.$.}.}.",
"d.K.~.e.G.} 3.y.q.4.y._ @.P.7.<.<.4.4 8.8.8.q.w.w.: G.n.u.9.9.q.o o S.` 1.<.q.q.> L.I.p.q.8., ..~ s.y.=.q.q.} R.8.w.4 e.R.L.%.1 ",
"D.T.3.N.y.s.' 7.4.! 4 q.A.y.<.1.q.<.<.5 9.9.9.) 2 # # M P ; t o o u t t ` o.8.( 5 <.1.u.E.q.o I.s.} 8.o.~ I.T.<.7.q.N.K.P.q.i.1 ",
"1.H.w.w.s.u.u.    / / ! > <.9.7.1.q.8.4 / 8 ; e t e N % q q 0 O $ q q 9 u w e ) @.X.9.9.<.u.: D.I.F.( y.e.D.9.-.q.y._ K.i.q.y.q.",
"' q.<.s.a.0.9.+.G.L.w.w.1., 4 1.q.q.8., P e 0 % q e % % 9 9 q 9 $ q u % q q q X % t I } } w.> T.S.a.+...y.1. .( _ @.].P.s.s.q.q.",
"2.=.n.n.0.=.| R.P.A.u.1.9.i.4 o : , ; u e q 0 9 9 9 % % 9 9 0 $ 9 9 w % q q 0 % % 0 e a U ~ , P.L.p.! @.$. .3.i.3._.T.4.4.Z.q.u.",
"=., < 4 ( ~ 4 R.y.y.y.y.<.+ >  .l s t % e q q % 9 % % % 9 9 9 % $ 0 q 9 9 q q 9 % 9 0 q e P &.T.s.Z.i.! b._.).Q.L.~ u.q.q.s.q.9.",
"+ 4 Z.n.( / 8.:.q.q.y.1.=.! > u q q q % e 9 0 % 9 9 % % 9 9 0 9 $ 0 w q % q 0 q % 9 0 9 9 e w q w % u 5 R.i.q.y.< i._ _ ~ ( _ 4 ",
"3.E.S.G.=.i.i.u.! 4 5 / ~ + t q 0 0 0 % w w q f 9 9 9 X q w q # # y t t 9 q q q % 9 q q X q 0 q q % q w n O.<.8., 8.n.].).].).Y.",
"Z.G.2.p.1.y.y.y.=. ., 4 6 w q 9 f 0 q f q 0 9 f 9 9 q 9 u y u # o y u s 9 e t t % 0 w q % 0 q 0 q f q q q n ) 7.1., =.K.D.A.m.m.",
"A.8.u.1.y.q.8.y.q.1.n 0 e e 0 9 f 9 0 f q q 0 f t y y 9 d B u o o B t 0 f B S S % u w q % w w q w % w q q w 6.-.9.> Z.n.1.0.9.9.",
" .y.=.=.q.q.9.9.%.k e 9 q q 9 9 9 0 q f q w t g G B d 9 B d s o o B t % f S t V f i S x % w w q q % w q 0 q q w , n.E.=.=.0.9.m.",
"8.y.=.u.0.9.8.l e e q % 0 q 0 9 % q w % u d A q G d B f B B u o . B d f f F B B f S C w % t i u q % g x w % 9 q q t 9.>.1.>.0.9.",
"> =.9.2.9.` k 9 e e 0 9 f q q 9 9 w q f d B B f Z B d f d B s o o B V 9 A B B B % Z J C X a Y a t % w d w X % q e 9 q.> > / / | ",
"> > 4 <.n e s X e q e % f q w g g d t f B B F g V d 9 X B t t o o B B d 9 Z B B % d L B X B G d d 9 s s S X % u t X e t > < >.| ",
"E. .4 1 t s t % q q e 9 f q w g q V d % B a G f V t f g V t t o o B t B f Z B X % K B B X Z L V d 9 d d T % % i u X p p n.E.n.E.",
"y.K.G.d.y e e X q w u % f w i g q w d g u R t f t t f t B s t o o B u J f V B % X W V V X V f.V V f V t W X f u e X p p t u.8.9.",
"q.y.y.}.Y e t X w a 9 f d y G h q d s f u J t f t t g.9 V t t o o t t J f V V X X T B t X j.V B B f V V W f y t 9 X p p a m.4.9.",
"8.y.q.U t e u % x u f % d f.A u i V d % d E B f s t g.f B y t o o t t J q C V % X T B s X z.Z d t % V V V t f S % X y p t n.4.0.",
"q.q.y.I t w u X a t f f G h.d u u d d f E t B % s G g.f G S t o o t t h V V V X X L s s X E g.t t f V t h.X X y 0 y N s t n.4.9.",
"y.q.q.m e q t X p A g X F G F a q V u % E t B % t j.V f S t t o o t t h Z Z V S X L B t X E Z h.9 f V V h.% X y g F A a t m.7.9.",
"q.q.8.b e t u X t S h f J B F z q Z X f E B B % S h.V g y t t o t t t h V Z V F X L V t X f.B h.0 f V V S % X V 9 p D p t a.7.2.",
"5 5 7 b O O O % d S h o o o o o o o o o o o + X z.t V h B t o o t V t h B V V V f o o o o o o o o o o o o X X B o o o o o | 5.~ ",
"u.H.q.j O O O # + o o o o o o o o o o o o o o o o s J f y t o o t V t f L V t o o o o o o o o o o o o o o o o o o o o 4 n.E.G.( ",
"_.W.y.= # # # # d Z S + + o o o : . o . : . o z Y u J g t t o o t V V f h V B s f o o o o o o o o o o o o X z.B o o o o p.q.P.P.",
"=.q.2.j q t $ % V G J h p G t w w K B f B t % h d V J f s t o o Z V V B h Z B V f V V t X t t B V z Z V t X z.V B h A t p.n.<.w.",
"=.y.6.* q t q % V G J h J J d h w J Z f B t % f d B J f t t o o Z V i d h f.s Z f V V u X t t Z S z Z V d X V x.s q d t u.n.<.w.",
"o.y.&.* q t w % d G f.g E y B q B G G % B J B f A L B g t t B o t Z i V h z.y Z f G V t X t d Z t z Z V X % B z.s q a t p.i.n.7.",
"o.u.&.j q t q % A R f h d B B 0 V J d % d J B % d E B q B V A o t Z d B h T S t f G A d X y V Z B h Z Z % q V x.V 9 N t u.<.i.8.",
"=.8.&.j q u q % d g.d f y B B 0 V K V f G V B f V E V 0 V V t o t Z V Z g J Z B f C A d X B Z t B z S t X % Z z.V g a t y.Z.1.0.",
"4.=.-.j q t q % B h.d f y B V f V K V f J V d f G J S 9 V B t + t Z B u f R Z V f B d A X V V t V z C d X X Z c.Z 9 N t ! Z.>.u.",
"< =.-.v q w w % d g.L X t B V f d K X f J V V % G d Z 0 i i t . t Z Z % z.d J C % h.A B X Z Z V V k V d G X i c.y 0 a Q Y.4 4  .",
"} < 1 & q u u % B F l.X i A t f V K X % G V B X F d 0 0 B t t o t Z V X l.B G Z X g.G V X V t V g k Z N K X B c.y 0 N a R.{.[._.",
"_._.i.j q u q % d t z.X a t B g V L % g V V B % Z G f g V t t o Z V Z X l.V V Z X g.J V X V V Z h h Z V J X c.C V 0 A t p.n.4.7.",
"9.I.W.j w t u f d u g.f s s B 9 B f.B h V V V X Z G f f V t t o . t Z X l.Z B B % f.J B X C V Z z f 0 V J X c.C B 0 A t A.C.4.9.",
"9.4.q.j u t u f G t l.f t s B f Z L t q V V Z % Z G g q V t t o o t Z X f.g.B B 9 h.G Z X t V V q 9 h B J X c.B V e D t A.=.4.9.",
"u.4.q.j u k t X Y t k.f t t B f G L s g B V S % Z Z h V V t t o . t Z X l.f.B B 0 h.J B X f.V Z V g t d J % c.B C 0 D t A.<.<.9.",
"9.1.y.v u e u % S t k.X E t B f G W t g s V Z % Z V h V Z t t o : t Z X h.V f.s 9 h.J B X f.Z Z V f d V J X c.S C 0 S t Z.<.<.u.",
"7.q.w.v u u u % t T k.f E t Z h L V E g d B Z % V B h Z B t t o . t B Z X Z V 0 h Z J B X Z L t V f V K t X c.V q V Y t Z.2.#.9.",
"7.q.9.b i w t f u G W f E s V 0 G B E g d Z Z f V s h Z B t t o o t d Z X g.B 9 z Z Z B X t K t V % V W t X c.S f f D t Z.4.1.~ ",
"7.y.<.M i e t f V F E f W t Z g t J W f d V Z f C R o 9 Z B t o o t d d X . B f h.V B V X B Z s Z f V L t X c.B f f S t _ < 4 / ",
"9., < & u q u f S G E % p E Z q t J f.q d V C f V R o 9 Z B t o o t d t X o t % h.Z B s X Z Z t B q V f.t X c.B f % A t F.Y.A.a.",
"> 4 -.j q q t f V E K X t E V f s J f.h d V S g A P o + Z B B o o s B 0 o o t f h.Z V s X Z t t Z g Z T u X z.B f % A t D.p.S.Y.",
"u._.D.* q u u % p A g.% d E B f t J W q d V A f O + o o . Z Z o o d d X o o + h Z B B Z X Z t t J q f.t s X l.V f X A t A.1.0.9.",
"Q./.-.= q w u 9 y d W X d W Z 0 t G f.q B V B f + A V % O Z V o o t B o q E o + Z V B V X t t t h 9 L t t X g.V h f N t S.9.1.u.",
"2.q.-.= q u w f p V W f d W Z 0 d F z 9 d V V f @ t 0 0 + s V o o t d o f f.o # g.V B Z X t Z s g q J t B X f.V h f a t F.A.<.9.",
"9.q.*.f q w 9 9 p Z W f d W Z f V F z f B V B % j.+ o + B Z t o o t B + o o o 9 f.B B Z X B f.Z h 9 J t B D X S h f f t u.S.<.9.",
"9.q.X.* q u f 9 p B f.f y f.Z 9 V y x f t V V f h.V V q V Z t o o u B Z z V B h B f.B Z X Z f.Z L 0 y F d % X B h B f t a.F.<.1.",
"1.q.[ f q t f f V B g.f y W V 0 V d g.q B V G f h.V B q V V t o o B t V k V V G 9 V J Z % X g.Z f.0 B A t X X V f V a u p.A.4.! ",
">.w.{ j q p p f V B g.f d A Z 0 V B f.q d V J f h.V 0 0 V V t o o B t V h V V G g t Z J X X g.B g.9 F S V X X V f B a s p.R.| < ",
"4 y.{ * q t u f B B g.9 d d V 9 B B x w B d W q g.V f Z V t t o o t B B g V V G 9 t V F X X h.Z g.f G V Z X % B f B s t T._.Q.L.",
"e.> & & q u e 9 G B L f d d Z 9 B B z w t d f.q W S F 9 V t o o o t B B g C V V h V Z t X Z h.V g.g S J C X B V f B t t u.A.4.2.",
"W.u.b & q w 0 q B t W f s d Z 9 V B z u t B f.f W Z F g V t o o o t V V g B B V f V Z t X Z h.V f.0 t J Z X B J h D a t u.A.2.9.",
"#.u.M q q q q h B t L f s d V 0 B t h t t V g.9 W Z F 0 V u o o t t V f g B V t f V Z t X Z t f.P g Z K Z X B L o 9 a u p.A.4.9.",
"#.=.- $ $ $ q f B d @ o + o o o o o : + o o g.9 t g.F 0 V t o o t t V f * t V t f o o + o o o o o o o o o X W o o o o o y.N.<.9.",
"p.=.& $ $ $ $ O o o o o + o o o o o o o o o o o o f.S f B t o o t t V X % y V o o o o o o o o o o o o o o o o o o o o o a.N.4.u.",
"#.=.[ $ O $ u # o o + + o o o . o o o o o o o % t W G f V t o o t t V % % a V f f o o o o o o o o o o o o o W o o o o o u.C.9.9.",
"=.y.*.$ $ $ t X W d V . o o J g V D f B B D g.9 9 W 0 g N t o + t t V X % N V % k V t X X V B W V q N t r X g.t o o t o p.C.2.9.",
"y.=.q.q q u u 9 f.d V T V i K 9 C D q e B D W f f W 0 f N s o + t V V X % N s f h t t X X Z B L Z 9 C t y % X t q q t t a.Z.4.8.",
"y.#.y.b q u e 9 f.u V f V t K g D S p q B V H 0 f L g 0 N s o o s V V % W a t f h B t X X V t K y 9 C s J X X B 0 S V t p., > > ",
"q.=.> & q u e 9 f.t d f V F V g D s t e V V J % g V Z h N t o o p V Z X x a t 9 W V t X X V E V a 9 C s J % H V 9 B V t a.!.D.2.",
",., , j q e 0 9 B E B f V F Z g V a A q B B g.X h V V g F s o o t V Z X k f V % W V y Z X V R t a % Z B Z X N C 0 D B t Z.D.D./.",
"^.Q.2.= 0 q 9 9 B f.B f V K V 9 t N t z B h.V % W B C f z t o o o y V X a g V % K V A Z X V W t y % Z C D X A V f N B t d.Z.7.9.",
"9.y.=.= q e q 9 S f.F f V K V f V A q a B g.V X K t e g p t o o o p Z t q h V f L t Y Z X W Z V C 9 Z C D X D B g N D B a.Z.8.u.",
"u.y.O.j q z e 0 C f.V h G d V g B S h x g.V V % J t V f x s o o o y N t 0 f V f L t F Z % L Z Z C f Z B B X a V q N D t 0.Z.8.9.",
"9.u.X.* q u u 9 B f.B T S B t g V s z u h.B % 9 Z t V q x y t o o t N V g f V g V R R V X S Z Z Z % Z Z V X B B % a D t 8.Z.7.9.",
"9.y.&.* q e u f V B f.w Z d s g B s 0 E G C X 9 S t V h q t t o o t A B % % C V X f.Z Z X A Z B Z % V f.t X A B % D D t q.( 4 / ",
"( > , j u u u 9 B d f.g Z d B q V d 0 l.S Z X 9 s B V k V t t o o s N Z X % Z Z % g.Z Z X p Z Z Z % C g.t X D D % D B t T.[.K._.",
"Q./., O q t t 9 V B B % B B t g B B x 0 t Z t B f d V k V V B o o y A V X V V V f B W V X X B Z Z % h.Z B X B D f g N t Y.[.P.w.",
"9.i.O.2 u e A q B t V f B B t g V B z u B Z B q X B g.q V V V o o t V C X V V V 9 V L Z X X Z Z Z % h.B C X V A % f N t y.C.1.u.",
"w.w.=.2 u u B 9 B s t 9 Z B t 0 t t s q B Z B X f W f.9 t V t o o t V t X B B t f V s F X X Z Z t % h.B N X B s f f N t q.<.w.w.",
"w.w.-.2 t u V q V t t s V B t f t t i B B t s f t t t w t t t t o t t t X t t t B t t t X X Z Z u X L t B X t s % f B t p.<.<.u."
};
