/* XPM */
static char *ou1[] = {
/* columns rows colors chars-per-pixel */
"64 64 145 2 ",
"   c #D7621D",
".  c #DC641D",
"X  c #DF6A1F",
"o  c #E06B1F",
"O  c #D66520",
"+  c #DB6620",
"@  c #D66924",
"#  c #DE6D22",
"$  c #DE7224",
"%  c #DF7826",
"&  c #DE752B",
"*  c #DE7A2C",
"=  c #DF7D31",
"-  c #E16E21",
";  c #E37324",
":  c #E47927",
">  c #E87A27",
",  c #E1772D",
"<  c #E27B2B",
"1  c #E87E2A",
"2  c #E27D31",
"3  c #DE8332",
"4  c #E3842D",
"5  c #E9822D",
"6  c #E48433",
"7  c #E98631",
"8  c #E68B33",
"9  c #E88D35",
"0  c #E58C39",
"q  c #EA8D39",
"w  c #EC9037",
"e  c #E6913C",
"r  c #E8943E",
"t  c #EE993E",
"y  c #F29436",
"u  c #F19639",
"i  c #F39A3B",
"p  c #F1993D",
"a  c #F49C3E",
"s  c #F29A3D",
"d  c #E79641",
"f  c #E99640",
"g  c #E99740",
"h  c #E99741",
"j  c #EB9640",
"k  c #EA9740",
"l  c #EA9741",
"z  c #EC9741",
"x  c #E99740",
"c  c #EA9840",
"v  c #EA9841",
"b  c #EB9842",
"n  c #EA9942",
"m  c #EB9943",
"M  c #EA9A42",
"N  c #EA9A43",
"B  c #EB9A43",
"V  c #EA9B43",
"C  c #EB9B43",
"Z  c #EC9A40",
"A  c #EC9942",
"S  c #EB9B44",
"D  c #EC9B44",
"F  c #EB9C44",
"G  c #EB9C45",
"H  c #EC9D45",
"J  c #EC9E46",
"K  c #EC9F47",
"L  c #EB9A43",
"P  c #F29E42",
"I  c #F29F42",
"U  c #F49F40",
"Y  c #F19D41",
"T  c #ECA047",
"R  c #EDA048",
"E  c #EDA148",
"W  c #EDA149",
"Q  c #EEA24A",
"!  c #EEA44B",
"~  c #EFA54B",
"^  c #EFA54C",
"/  c #EFA64C",
"(  c #EEA44B",
")  c #EFA94E",
"_  c #EFA84E",
"`  c #F4A143",
"'  c #F2A246",
"]  c #F5A344",
"[  c #F3A446",
"{  c #F3A647",
"}  c #F4A446",
"|  c #F5A546",
" . c #F5A647",
".. c #F5A747",
"X. c #F5A546",
"o. c #F5A847",
"O. c #F5A748",
"+. c #F5A748",
"@. c #F5A849",
"#. c #F5AA49",
"$. c #F5AA4B",
"%. c #F6AA4A",
"&. c #F6AB4A",
"*. c #F6AB4B",
"=. c #F6AC4B",
"-. c #F0A84E",
";. c #F0A94E",
":. c #F0A94F",
">. c #F0AA4F",
",. c #F6AC4C",
"<. c #F6AD4C",
"1. c #F6AE4D",
"2. c #F6AF4E",
"3. c #F7AF4E",
"4. c #F6AF4F",
"5. c #F5AB4C",
"6. c #F6B04F",
"7. c #F7B04F",
"8. c #F6B04F",
"9. c #F0AA50",
"0. c #F0AB50",
"q. c #F0AB51",
"w. c #F1AC51",
"e. c #F1AD52",
"r. c #F1AE52",
"t. c #F1AD52",
"y. c #F7B150",
"u. c #F7B251",
"i. c #F6B352",
"p. c #F7B453",
"a. c #F7B553",
"s. c #F7B554",
"d. c #F7B352",
"f. c #F8B654",
"g. c #F8B655",
"h. c #F8B755",
"j. c #F8B655",
"k. c #F8B856",
"l. c #F8B957",
"z. c #F8B957",
"x. c #F8BA58",
"c. c #F9BB58",
"v. c #F9BC5A",
"b. c #F9BD5A",
"n. c #F9BC59",
/* pixels */
"2 ; - ; $ e q./ v e e 8 ; o ; ; $ 4 4 6 8 w 8 ; o ; 1 e a.v.a.:...I 7 ; - X X $ ; ; 2 0 0 2 ; ; ; ; v q./ l e e 6 $ o ; $ % 4 4 ",
"6 ; % % 6 / q./ v e e v 0 % $ 4 4 4 4 4 8 8 e 8 < 4 s 6.v.l.8.o.......8 # # ; ; ; ; 2 0 0 2 % % % 0 q.q./ l e e l 8 $ $ 4 4 4 4 ",
"2 ; 2 6 v :.q./ v e e e e 0 8 4 4 4 4 6 8 8 8 8 8 e :.a.v.l.:...........6 ; ; ; ; ; 2 0 0 2 % 2 8 v q.q./ l e e e e 0 8 4 4 4 4 ",
"2 ; 2 < l :.q./ v e e e e e 8 4 4 4 4 4 8 8 8 8 8 v :.a.v.l.:...........6 ; < ; ; ; ; 2 0 2 ; 2 < v q.q./ l e e e e 0 6 4 4 4 4 ",
"2 < 2 6 v q.q./ l e e e e 0 4 4 4 4 4 4 8 8 8 8 8 t :.f.v.f.:...........6 2 6 < ; ; 2 2 6 2 ; 2 6 v q.q.v l e e e e 0 4 4 4 4 4 ",
"< ; 2 e v q.q./ l e e e e 0 4 < < 4 4 4 8 8 8 8 8 t :.f.v.f.:...........6 2 0 2 ; ; 2 2 2 2 ; 2 e / q.q.v e e e e e 0 4 < 4 4 4 ",
"; ; 6 e v ) q.v l e e e e e 6 4 < < < 4 4 8 8 8 8 t :.f.v.f.:.....I s O.0 = 0 2 ; ; ; 2 ; ; ; 6 e v q.:.v e e e e e 0 4 4 < < < ",
"2 6 6 l v v v v e e e e v e 6 8 4 4 < < 4 4 4 8 8 e :.:.:.6.:.....s ..:.0 6 6 2 ; ; 2 2 ; 2 6 6 v v v / v e e e l v 0 8 8 4 < < ",
"6 < ; ; 8 v v e e e v v 8 ; - < 8 8 4 4 4 8 8 5 > ; 7 ..:.:.....:.:.I 1 # - 2 6 2 ; ; < 6 6 < ; ; q v v e e e v v 7 ; - < 8 8 4 ",
"; ; < ; - ; q v v v q < ; $ ; # - < 8 8 8 8 1 1 8 7 : ; 8 O.:.:...7 - X + X X ; 6 6 6 6 < ; < < ; - < e v v v 8 : ; $ ; o ; 4 8 ",
"8 v v e 6 < - < q 5 ; $ : 4 8 4 : o ; 4 1 > 7 ..6.O.s 8 ; : e e ; X + % ; ; $ X - < 4 ; ; 8 v v 0 6 ; - 6 q < ; $ < 4 8 4 ; - ; ",
"q.q.K l e e 6 ; - ; : 4 4 4 8 8 8 6 ; - 1 e :.v.f.:.....s 5 ; X + $ ; < ; 6 0 < X X - $ e q.:.v e e e 4 # - ; : 4 4 4 8 w 8 4 ; ",
"q.:.v e e e l 6 % 4 4 4 4 4 8 8 8 w 6 < s :.l.v.f.:...O.....6 # ; 2 2 2 ; 6 0 6 ; @ % 8 / q./ v e e l e 3 * 4 4 4 4 4 8 8 8 e 6 ",
"q.:.v e e e e e 8 8 4 4 4 4 8 8 8 8 8 e ..:.l.v.f.:.........t < 2 ; 2 2 ; 2 0 6 < % = e / q./ v e e e e e 8 4 4 4 4 4 8 8 8 8 8 ",
"q./ v e e e e e 8 4 4 4 4 4 8 8 8 8 8 e ..6.v.v.a.:.........t < 2 2 ; ; ; ; 6 6 ; % * 0 / q./ v e e e e e 6 4 4 4 4 4 8 8 8 8 8 ",
"q./ v e e e e e 6 4 4 4 4 4 4 8 8 8 8 e ..a.v.v.a.:.........e < 0 2 ; ; ; ; 2 2 ; % 6 l :.q./ v e e e e e 6 4 4 4 4 4 8 8 8 8 8 ",
"q./ v e e e e e 3 4 < < 4 4 4 8 8 8 8 8 ..6.v.l.8.o.........e % 0 6 ; ; ; ; 2 2 ; % 0 v :.q./ l e e e e 0 3 4 < 4 4 4 4 8 8 8 8 ",
":./ v e e e e v 0 8 4 < < < < 4 8 8 8 e :.:.f.l.:.......y ..v 2 6 6 ; ; ; ; 2 2 2 6 d l v :./ l e e e e l 8 4 4 < < < < 4 8 8 8 ",
"v v l e e l v e < 4 8 4 4 < 4 4 4 8 8 < e :.:.:.:.........O.8 < 6 2 ; ; ; ; < 2 6 < 6 l v v v l e e v v q < 6 8 4 4 < 4 4 4 8 8 ",
"v v e l v l 5 ; # o : 8 8 4 4 8 8 5 ; $ - 1 I :.:...:.:.u 1 : ; ; < 6 2 < 2 6 6 ; # # ; 8 v v l v v e 1 ; # - < 8 8 4 4 8 8 < ; ",
"; q v v 8 : < 6 8 < $ - < 8 8 5 : ; $ < < # - 7 ..:.I 5 1 8 I e 5 ; ; 6 6 6 < - X # ; ; ; ; q v l 7 ; < 8 8 < - ; 4 8 8 5 ; ; $ ",
"< ; < < ; 6 / / v e 0 < # ; : ; $ : 4 8 8 8 < # ; 5 > 5 ..f.a.O...e 1 ; ; - X # % ; 2 0 0 ; - < : ; 8 / / v e 8 < - ; : ; $ < 4 ",
"6 ; ; $ < / q./ v e e l 8 $ $ < 4 4 4 4 8 8 e 8 $ : y :.v.v.6.O.O.O.I 7 # + % ; ; ; < 0 0 2 % ; $ 6 :.q./ l e e e 6 # $ < 4 4 4 ",
"2 ; * 6 l :.q./ v e e e e 3 6 4 4 4 4 4 8 8 8 w 6 e :.f.v.l.:.......O...2 % < ; ; ; < 0 0 2 % 2 6 v q.q./ l e e e e 3 6 4 4 4 4 ",
"2 ; 2 6 v :.q./ v e e e e e 8 4 4 4 4 8 8 8 8 8 8 v :.f.v.l.:...........6 ; ; ; ; ; ; 6 0 2 ; 2 6 v q.q./ l e e e e 0 8 4 4 4 4 ",
"2 ; 2 6 v q.q./ v e e e e e 4 4 4 4 4 4 8 8 8 8 8 v :.f.v.l.:...........6 2 6 ; ; ; ; < 6 2 ; 2 6 v q.q./ l e e e e 0 4 4 4 4 4 ",
"< ; 2 e v q.q./ l e e e e 0 4 < 4 4 4 4 8 8 8 8 8 t :.f.v.f.:.......O...6 2 0 < < 2 ; ; 2 < ; 6 e / q.q.v e e e e e 0 4 < 4 4 4 ",
"; ; 2 0 v q.q.v l e e e e 0 4 4 < < 4 4 4 8 8 8 6 e :.f.v.f.:.......I ..6 2 0 2 2 2 ; ; ; ; ; 6 e v q.:.v e e e e e 0 4 4 < < 4 ",
"< 2 0 v v v / v e e e e v l 8 8 4 < < < 4 4 4 8 8 v :.:.f.f.:.....u s :.0 6 6 2 2 ; ; ; ; < 6 q v v v / v e e e e v e 8 8 4 < < ",
"6 6 ; < e v v e e e v v e < ; 4 8 8 4 4 4 4 8 8 < ; e :.:.:.....O.:.O.8 # ; 6 6 2 ; ; 2 2 6 < ; < l v v e e e v v q ; ; 4 8 4 4 ",
"< ; ; $ - 6 l v l v e 5 ; $ $ o ; 6 8 8 8 8 5 > 5 < ; 1 s :.:.:.:.e ; X X X - < 6 2 2 6 6 < ; ; - ; 7 v v v v e 1 ; $ # o : 8 8 ",
"< e l 8 < ; ; 8 l 8 ; ; $ < 6 < ; o < 8 5 > 5 t :...y 5 ; 5 ..I 1 X X # % $ # X - 2 6 < ; 4 e e 8 < ; ; q l 7 ; $ $ 4 6 < ; - < ",
"/ q.v e e 0 < - ; ; $ < 4 4 8 8 8 < - ; > 8 O.v.f.:.....w > ; - X # ; ; ; 6 0 % X X ; # 8 / :.v e e 8 < - ; ; $ < 4 4 8 8 8 < - ",
"q.:.v e e l e 2 $ < 4 4 4 4 8 8 w e 4 * e :.l.v.f.:.......s < + % ; ; ; ; 6 0 6 % O $ 6 / q./ v e e l e * $ 4 4 4 4 4 8 8 w e 4 ",
"q.:.v e e e e e 8 8 4 4 4 4 8 8 8 8 8 0 ..6.l.v.a.:.......O.e ; ; ; ; ; ; 2 0 6 < % 6 e / q./ v e e e e e 8 8 4 4 4 4 8 8 8 8 8 ",
"q.:.v e e e e e 8 4 4 4 4 4 8 8 8 8 8 e ..6.v.v.a.:.........t < 2 < ; ; ; < 0 6 < * * 0 / q./ v e e e e e 8 4 4 4 4 4 8 8 8 8 8 ",
"q./ v e e e e e 6 4 4 4 4 4 8 8 8 8 8 e ..f.v.v.6.o.........t < 0 2 ; ; ; ; 2 6 < * 6 e ) q./ v e e e e e 6 4 4 4 4 4 8 8 8 8 8 ",
"q./ v e e e e e 3 4 < 4 4 4 4 8 8 8 8 0 ..f.v.v.6...........e * 0 6 ; ; ; ; 2 2 ; % 0 v :.q./ v e e e e 0 6 4 < 4 4 4 4 8 8 8 8 ",
"q./ v e e e e l 8 4 4 < < < 4 8 8 8 8 0 O.:.l.l.:.......u ..v = 0 6 < ; ; , , 2 < = 0 e / q./ l e e e e e 8 4 < < < < 4 8 8 8 8 ",
"v v l e e l v v 6 8 8 4 < < < 4 4 8 8 6 ..:.:.:.:.........:.e 2 6 2 < ; ; ; 2 2 6 6 0 v v v v l e e l v e 4 8 8 4 < < 4 4 4 8 8 ",
"v l e e v v 8 < # - 4 8 8 4 4 8 8 5 : # ; 8 :.:.....:.:...7 : ; ; 6 6 < ; 2 6 6 < - # < e v l l e v v 8 ; # ; 4 8 4 4 4 8 8 5 : ",
"< e v v e 1 ; < 4 $ - ; 4 8 8 8 < ; $ * ; X ; e :.:...8 1 5 w 8 > ; < 6 6 6 < ; X # ; ; ; 6 l v v q < ; < 4 ; - ; 6 8 8 7 : ; $ ",
"; ; 7 5 ; < l / v 0 6 ; o ; 1 ; ; $ 4 8 8 4 ; o 1 8 1 1 t a.6...s 8 ; ; < ; X + # ; < 6 6 ; ; 7 5 ; 4 v / l 0 6 ; - < < ; $ % 4 ",
"2 ; ; ; < v q./ v e e e 4 # # ; < 4 4 4 8 8 8 4 # ; 8 ..v.v.8.o.O...u 5 # + # ; ; ; 2 0 0 2 ; ; $ < / q./ l e e e < # ; : 4 4 4 ",
"2 ; * 6 e ) q./ v e e e e 3 * 4 4 4 4 8 8 8 8 w 4 8 ..f.v.l.8.......O.I * % ; ; ; ; < 0 0 2 % * 6 l :.q./ l e e e e * 4 4 4 4 4 ",
"2 ; 2 6 v :.q./ v e e e e e 8 4 4 4 4 8 8 8 8 8 8 v :.f.v.l.3...........0 , ; ; ; ; ; 6 0 2 ; 2 6 v q.q./ l e e e e 0 8 4 4 4 4 ",
"2 ; 2 < l q.q./ v e e e e e 4 4 4 4 4 4 8 8 8 8 8 v :.f.v.l.:...........0 2 2 < ; ; ; 2 6 2 ; 2 < v q.q./ l e e e e 0 4 4 4 4 4 ",
"2 ; 2 0 v q.q./ l e e e e 0 4 4 4 4 4 4 8 8 8 8 8 v :.f.v.f.:...........0 2 0 2 ; < ; ; 2 2 ; 6 e / q.q.v e e e e e 0 4 < 4 4 4 ",
"< ; 2 0 v q.q./ l e e e e 0 4 4 < < 4 4 4 8 8 8 8 e :.f.v.f.:...........6 < 0 < ; ; ; ; < 2 % 2 e K q.:.v e e e e e 0 4 < < 4 4 ",
"; 2 0 l l / / v e e e e v l 8 8 4 < < < 4 4 8 8 8 v :.:.f.f.:.....s s :.0 2 6 < ; ; ; ; ; 2 2 0 v l / / v e e e e v e 8 4 4 < < ",
"6 6 < 6 v v v l e e e v v 6 < 8 8 4 4 4 4 4 8 8 4 4 I :.:.:.:.......:.s < < 6 2 ; ; ; ; 2 6 6 < 8 v v v v e e l v e < < 8 8 4 4 ",
"< ; ; # ; q v v e v v 8 < ; # - < 8 8 4 8 8 5 > > ; ; 7 ..:.:.:.:...5 - X X ; 6 6 2 < 6 6 < ; ; - ; q v v l v v 8 ; $ # ; 4 8 8 ",
"< 8 0 6 ; - < e v e 1 ; $ * 4 ; - ; 4 8 8 1 > 8 I s 8 : ; e :.O.8 ; X # $ # X X ; 6 6 < ; < 8 0 4 ; - < l v q < ; $ < 4 ; - ; 4 ",
"v :./ e e 6 ; - < ; $ % 4 4 8 8 6 ; o ; > 5 I a.f.:...I 7 ; < ; X + % ; < 6 6 # X - ; ; 4 T :.v e 0 6 ; ; < ; $ : 4 4 8 8 4 ; o ",
"q.q.v e e e e * # < 4 4 4 4 8 8 8 8 < $ 8 ..l.v.f.:.......e < X $ ; ; ; ; 6 0 6 #   $ < v q./ v e e e 0 $ # < 4 4 4 4 8 8 e 8 < ",
"q.:.v e e e e 0 3 8 4 4 4 4 8 8 8 8 8 8 ..6.l.v.f.:.........e % 2 2 ; ; ; 2 0 6 < % 6 e / q./ v e e e e 0 3 6 4 4 4 4 8 8 8 8 8 ",
"q.:.v e e e e e 8 8 4 4 4 4 8 8 8 8 8 e ..6.l.v.a.:.........v < 2 ; ; ; ; < 0 6 2 = * e / q./ v e e e e e 8 4 4 4 4 4 8 8 8 8 8 ",
"q.O.v e e e e e 8 4 4 4 4 4 8 8 8 8 8 e ..a.v.v.a.o.........v < 0 2 ; ; ; ; 2 6 < = 3 e :.q./ v e e e e e 6 4 4 4 4 4 8 8 8 8 8 ",
"q./ v e e e e e 6 4 < 4 4 4 4 8 8 8 8 e ..a.v.l.6...........e < 0 2 ; ; ; ; < 2 ; % 0 v :.q./ l e e e e e 6 4 < 4 4 4 4 8 8 8 8 ",
"q./ v e e e e e 8 4 < < < 4 4 8 8 8 8 0 ..:.v.l.:.......s ..v * 6 6 ; ; ; ; ; ; ; * 0 l / q./ l e e e e e 6 4 < < < 4 4 8 8 8 8 ",
"/ / l e e e v v 8 8 8 4 < < < 4 4 8 8 8 :.:.:.f.:.......s :.v 6 6 2 ; ; ; ; ; 2 2 6 e v v K v l e e e v v 8 8 4 4 < < < 4 4 8 8 ",
"v l e e l v e 5 # ; 6 8 4 4 4 4 8 8 1 ; < I :.:.....o.:.:.e : ; 2 6 2 ; ; < 2 6 6 ; ; 6 v v l e e v v e < - < 8 8 4 4 4 4 8 8 < ",
"8 v v v l 7 ; < < $ - < 8 8 8 8 5 ; ; $ $ - 5 ..:.:.:.s 5 1 8 1 ; ; 2 6 2 6 6 < - + % - ; q v v v e 5 ; < < - - < 8 8 8 8 5 ; ; ",
"- < e q < ; 8 v e 8 < - - 4 7 : ; $ % 6 6 < # ; e ..7 > 8 ..:.I e 4 - ; 6 < ; X + % < 2 < - < l 8 : ; q v e 6 < - ; 4 5 : ; $ < "
};
