/* XPM */
static char *ou2[] = {
/* columns rows colors chars-per-pixel */
"64 64 149 2 ",
"   c #C75817",
".  c #C85917",
"X  c #C65C1A",
"o  c #CA5D19",
"O  c #D45E1B",
"+  c #C6601D",
"@  c #CC631D",
"#  c #CD681F",
"$  c #D2651D",
"%  c #DA641D",
"&  c #D2691F",
"*  c #DA6B1F",
"=  c #CF6E23",
"-  c #D36621",
";  c #D16D22",
":  c #DB6E23",
">  c #D76E28",
",  c #CE7025",
"<  c #D37225",
"1  c #DB7325",
"2  c #DC7927",
"3  c #D67728",
"4  c #DC752B",
"5  c #D77829",
"6  c #DA7B2A",
"7  c #DE7D31",
"8  c #E06F22",
"9  c #E27524",
"0  c #E27A27",
"q  c #E97D27",
"w  c #E1772D",
"e  c #E27B2D",
"r  c #E97E28",
"t  c #E37E31",
"y  c #DD812E",
"u  c #DD8531",
"i  c #DF8832",
"p  c #E3832D",
"a  c #EB842B",
"s  c #E7882F",
"d  c #EC892E",
"f  c #F08A2E",
"g  c #E38433",
"h  c #E68B35",
"j  c #E88F35",
"k  c #E68B38",
"l  c #E88D3A",
"z  c #F08D31",
"x  c #E69037",
"c  c #E99036",
"v  c #E7973B",
"b  c #E7973C",
"n  c #E7973E",
"m  c #E7963B",
"M  c #E89238",
"N  c #E99238",
"B  c #E99338",
"V  c #E99339",
"C  c #E99538",
"Z  c #E99439",
"A  c #EA9438",
"S  c #EA9439",
"D  c #EA9539",
"F  c #EA9639",
"G  c #E9943A",
"H  c #EA953A",
"J  c #EB963A",
"K  c #EB973B",
"L  c #E9913C",
"P  c #EA923D",
"I  c #EB973C",
"U  c #EA943A",
"Y  c #E7983C",
"T  c #EB993D",
"R  c #EB9A3E",
"E  c #EC9B3D",
"W  c #EC9A3E",
"Q  c #EC9B3F",
"!  c #EC9C3D",
"~  c #ED9C3E",
"^  c #EC9B3D",
"/  c #F19031",
"(  c #F39334",
")  c #F29534",
"_  c #F29334",
"`  c #F39638",
"'  c #F29739",
"]  c #F29A3A",
"[  c #F39A3A",
"{  c #F49B3D",
"}  c #F29C3C",
"|  c #F49E3D",
" . c #F49E3E",
".. c #F29A3B",
"X. c #EB9640",
"o. c #EB9740",
"O. c #E79A40",
"+. c #E79A41",
"@. c #EC9841",
"#. c #EC9C40",
"$. c #ED9D40",
"%. c #EF9C40",
"&. c #EF9D41",
"*. c #ED9E40",
"=. c #EC9F40",
"-. c #ED9F40",
";. c #ED9F42",
":. c #EE9C44",
">. c #ED9E40",
",. c #F39F40",
"<. c #EEA344",
"1. c #EFA345",
"2. c #EEA243",
"3. c #EFA94A",
"4. c #F4A141",
"5. c #F4A241",
"6. c #F4A443",
"7. c #F3A346",
"8. c #F4A344",
"9. c #F0A446",
"0. c #F0A646",
"q. c #F0A647",
"w. c #F0A747",
"e. c #F4A444",
"r. c #F5A545",
"t. c #F4A446",
"y. c #F4A546",
"u. c #F5A546",
"i. c #F5A547",
"p. c #F5A647",
"a. c #F5A747",
"s. c #F4A546",
"d. c #F6A847",
"f. c #F4A847",
"g. c #F5A748",
"h. c #F2A84A",
"j. c #F2AB4A",
"k. c #F4AB4B",
"l. c #F2AC4A",
"z. c #F6AD4B",
"x. c #F7AD4B",
"c. c #F3AD4D",
"v. c #F3AE4C",
"b. c #F4AB4B",
"n. c #F4B04F",
"m. c #F6B14E",
"M. c #F8B14F",
"N. c #F7B350",
"B. c #F8B350",
/* pixels */
"< u n.6.6.6.6 = , < -.N 6.z.y = , ; k e k -.6 ; = ; b N -.z.b ; , ; O.z.6.6.-.; = ; u ! N z.1.< = ; 6 k t -.X.; = , 3 -.N 6.z.y ",
"< 6 z.6.6.6.6 = , < ! N 1.6.6 = , ; k t k N 5 ; = ; b N -.p.k ; , ; b z.6.6.-.; = ; u ! ! 6.! ; = ; 6 k g N k ; = , 3 -.N 1.1.6 ",
"< 6 z.6.p.p.6 = = < ! N -.! 6 = , ; k t g g 5 ; , ; N N ! -.k ; , ; x z.6.p.-.; = ; u ! N ! N ; = = 6 k t g g ; = , 3 ! N ! ! 6 ",
"< 3 6.6.6.6.6 = = < ! N N N 6 ; , ; k e e e 3 ; , ; N N N N g ; , ; k 6.6.6.-.; , ; u ! N N k ; = ; 6 k e e e ; = , 3 ! N N N 6 ",
"< 3  .6.6. .3 = = < ! k k k 2 ; , < k 5 5 w 3 ; , ; b N k k s ; = ; s  .6.6.N ; , ; u ! k k k ; = ; 6 k 5 w w ; ; = < ! k k k 6 ",
"< 3 / `  ./ 3 ; , < -.N N k < ; , < k 5 w w 3 ; , ; b N k k y ; = ; s /  . .d ; , ; i ! k k g ; = ; 6 g 5 w w ; ; , < ! k k k 6 ",
"= < d q r q ; = = < N s s s 3 # = ; k e e e 3 + = = k k s s 6 # - + e d r r 0 & = = y N s s s ; = = 5 k e e e ; # # < N s s s 3 ",
"+ $ 9 3 % O o + + + s s 9 3 $ + + + k N d d 3 + X + 2 s 0 : * + X o : 9 : % O o + + < s e 3 3 + + o ; N N d d $ + + $ s s 3 3 $ ",
"o ; k g 5 > + o X ; ! ! k k < . X + p.n.6.6.g o X o x ! N g 6 o X o 6 k g 5 ; o X . 6 -.! k k + X X 6 n.z.6.6.< X X ; ! ! k k 3 ",
"+ < k e w w ; o o < -.N k N 6 + o ; z.z.6.z.k + X + ! b k N s + X + g g e e 5 + o + u ! N N k ; o o u N.z.p.p.6 o o < -.k N N 6 ",
"< 6 k w w w ; ; = 3 -.k k k 6 ; = < z.z.6.p.k ; = < b k k N s ; = ; g g w w 5 ; , ; u ! k k g < = ; u N.p.p.p.6 = = 5 ! k k k 6 ",
"< 5 k w w w ; ; , 3 -.k k k 6 ; , < z.z.6.p.k ; , ; b N k k s ; , ; g g w w 5 ; , ; u ! k k g < = ; u N.p.p.p.6 ; = 3 -.N k N 6 ",
"< 5 k w w w ; ; = < -.N N N 6 ; = < z.z.6.p.k ; , ; b N k N s ; = ; g g w w 5 ; , ; u ! k k k ; = ; u N.6.6.6.6 = , 5 -.N k k 6 ",
"< 5 k w e e ; ; = < -.N N N 6 ; , < z.z.6.p.k ; , ; b N N N s ; = ; g g w e 5 ; , ; u ! k N k ; = = u N.6.6.6.6 = = 3 -.k N N 6 ",
"< 3 k w t g ; ; , < -.N N ! 6 = = < z.z.6.p.k ; , ; b N N ! k ; = ; g g e g e ; , ; u ! k N N ; = = u N.6.6.6.6 = = 3 -.k N ! 6 ",
"< 3 k w k k ; = , < -.N ! 6.6 = = < z.z.6.p.k ; , ; b N N 6.k ; = ; g g e N g ; , ; u ! N 1.-.< = = u N.6.6.6.6 = = 3 -.N ! 1.6 ",
"< 3 k e X.X.; = , < -.N 1.z.y ; = < z.p.6.6.k ; , ; b N ! z.b ; , ; u g g -.k ; = ; u ! N z.1.< = = u N.6.6.6.6 = = 3 -.N 6.z.y ",
"< 3 k t N N ; = , < -.N 1.w.6 ; = < 3.6.6.6.k ; , ; b N -.z.b ; , ; g g g X.g ; = ; u ! ! z.-.< = = u z.6.6.6.6 = , 3 ! N 6.w.y ",
"< 3 k g k g ; = , < ! N -.-.6 ; , ; 6.z.6.6.k ; , ; ! N -.1.k ; = ; g g g k t ; = ; u ! ! 1.N ; = ; 6 z.6.6.6.6 = = 3 -.N -.-.6 ",
"< 3 k t g t ; ; , 3 ! N N N 6 ; , ; ! z.6.6.k ; , ; Y N N N g ; = ; g g t g 5 ; = ; u ! N N N ; = ; 6 z.6.6.6.6 = , 3 -.N N N 6 ",
"< 3 k 5 e e ; ; , < -.N N N 6 ; , ; N 6.6.6.g ; , ; ! N k N s ; = ; g g w e 5 ; , ; u ! k N k ; = = 6  .6.6. .3 = , 5 -.k k k 6 ",
"< 5 k 5 w w ; ; , 3 -.N k k 6 ; , < N  .6. .e ; , ; ! N k k 6 ; = ; g 7 5 w 5 ; , ; u ! k k k < , < 6 /  .6./ 3 = , 5 -.k k k 3 ",
"; 3 k w e e ; = = < ! k k k 2 = = ; k f z f 0 ; = ; b N k k y ; = ; g t w e 5 ; = = u ! k k g ; = = 2 / d z d 3 = = 3 ! k k k 6 ",
"+ ; k d d r & + + & s e 3 3 & + + + 3 8 * % $ + + + 6 e 0 3 : + + + 6 d d d e + + + 3 s 0 3 3 + + + ; 9 8 % % $ + + & s 0 0 9 & ",
"o < 6.6. .` ; X X + N N s e ; o X o e g 5 - O o X o g N k s 3 o X o k w.6.` k + X o 3 N N 6 e + X X ; g g : - o X X $ N N s s ; ",
"o 6 B.z.p.6.6 .   ; 1.N N N 3 . X $ k g e 5 : o   + b ! N N s + X o O.B.z.p.,.+   . u -.N N k &   o 3 k t w 5 - .   < 1.N N N 6 ",
"; u n.6.6.6.6 = = 3 ! g k N 6 = = ; k e w w 3 ; = ; b N k k s ; = ; O.z.6.6.-.; = ; i b k N k < = = 6 k w w w ; = = 5 -.k k k 6 ",
"< u N.6.6.6.6 ; , 3 -.k k N 6 ; , < k e w w : ; , ; b N k k 6 ; , ; O.z.6.6.-.< , < i ! k k k < , < 6 k w w w ; < , 5 -.k k u 6 ",
"< u N.6.6.6.6 = , < -.N k k 6 ; , < k e w w 3 ; , ; b N k k s ; , ; O.z.6.6.-.< = ; i ! k k k < = ; 6 k w w w ; < , 5 -.k k k 6 ",
"< u N.6.p.6.6 = , < -.N N N 6 ; , < k e w e 3 ; , ; b N k N s ; , ; O.z.6.6.-.; = ; u ! k N k ; = ; 6 k w e w ; < , 3 -.k k N 6 ",
"< u N.p.p.p.6 = = < -.N N N 6 ; , ; k e e g 5 ; = ; b N N ! g ; , ; -.x.6.p.-.; = ; u ! k N N ; = ; 6 k w t t ; ; , 3 ! k N N 6 ",
"< u N.p.p.p.6 = = < -.k ! 1.6 = , ; k e t k 5 ; , ; b N N 1.k ; , ; -.x.6.p.-.; = ; u ! k -.! ; = ; 6 k w g k ; = = < -.N ! 1.6 ",
"< u N.6.6.6.6 = = 3 -.N 1.z.6 = , ; k e k -.6 ; = ; N N ! z.b ; = ; O.z.6.6.,.; = ; u ! N z.1.< = = 6 k e N N ; = = 3 -.N 1.z.y ",
"< u z.6.6.6.6 = , 3 -.N 6.z.6 = , ; k t k -.6 ; = ; N N -.z.b = = ; O.z.6.6.,.; = ; u ! N z.1.< = = 6 k t X.N ; = = 3 -.N 6.z.y ",
"< 6 z.6.6.6.6 = , 3 -.N 1.1.6 = , ; k t k k 5 ; , ; b N -.1.k ; = ; b z.6.6.,.; , ; u ! ! 1.! ; = = 6 k g k k ; ; = 3 -.N 1.1.6 ",
"< 6 z.6.6.6.6 = , 3 -.N ! ! 6 ; , ; k t g g 5 ; , ; b N ! ! g ; = ; k z.6.6.,.; , ; u ! N ! N ; = ; 6 k t g t ; ; = 3 -.N ! N 6 ",
"< 3 6.6.6.6.6 = , < ! N N N 6 ; , ; k e e e 3 ; , ; b N N N s ; , ; k 6.6.6.! ; = ; u ! x N k ; ; ; 6 k e e e ; ; = 3 -.N N N 6 ",
"< 3  .,.6. .3 = , < ! N k k 6 ; , < k 5 w e 3 ; , ; b N k k s ; = ; s  .6.6.k ; , ; u ! k k k ; ; ; 6 k 5 w w ; ; , 5 -.N k k 6 ",
"< 3 / /  .z 3 = = < -.N k k 5 ; = ; k 5 w w 3 ; , ; Y N k k y ; = ; s / ` / d ; = ; i ! k N k ; = ; 6 g 5 w w ; = = 3 1.N k k 6 ",
"- ; s 9 9 9 $ + + ; k s s e ; + + ; k e e e 3 + - # k s s e 3 + + + 2 0 9 9 9 + + + 6 k s e e & + + < k e e e ; + + ; k s s e < ",
"+ $ w w - O o + X + s s 0 9 $ o X + N ! N k 3 o + + 6 s e 3 : o X o : w 9 % O o + o < s s 9 3 + + X < ! ! k k & + X $ s s 3 3 $ ",
"o ; k g w 5 $ o   ; 1.! N k 3 . X + z.N.z.6.k .   o b -.N k s o X o u k t 5 > o X . y 1.! k k $ X   6 N.z.6.6.<     ; 1.! k k 3 ",
"+ 3 k w w w ; + + < 1.N k N 6 + + ; z.z.6.p.k + + & Y k k k s + + + g g w w 5 $ + + u ! k k k ; + + u N.6.6.6.6 + + < ! k k N 6 ",
"< 6 k w w w ; < , 5 -.N k k 5 ; , < z.z.6.p.k ; , < b x k k s ; , ; g g w w 5 ; , < i ! k k u < , < u N.6.6.6.6 ; < 5 ! k k k 6 ",
"< 6 k w w w ; ; , < ! N k k 6 ; , < z.z.6.z.k ; , < N N k k s ; , ; g g w w 5 ; , ; i ! k k k < , ; u N.6.6.6.6 = , 5 ! N k k 6 ",
"< 5 k w e e ; ; , < ! N k N 6 ; , < z.z.6.z.k ; , ; b N k k s ; , ; g g w e 5 ; , ; u ! k N k ; , ; u N.6.6.6.6 = , 5 -.N k N 6 ",
"< 3 k w e e ; = , < ! N N N 6 ; , < z.z.6.p.k ; , ; N N k N g ; , ; g g w e 6 ; , ; u ! k N k ; = ; u N.6.6.6.6 = , 5 -.k N N 6 ",
"< 5 k w g g ; = , < ! N N ! 6 = , < z.z.6.p.k ; , ; Y N N -.k ; , ; g g e g t ; , ; u ! k ! N < = = u N.6.p.6.6 = , 3 -.k N -.6 ",
"< 3 k w k N ; = , < -.N -.p.6 = , < z.z.6.p.k = , ; b N N z.b ; = ; g g t N g ; , ; u ! N 1.-.< = = u N.6.6.6.6 = , 5 1.N -.1.6 ",
"< 3 k e X.X.< = , < -.N 6.z.y = , < z.p.6.p.k = , ; ! N ! z.b ; = ; g g g -.k ; , ; u ! N z.1.< = = u n.6.6.6.6 = = 5 1.N 6.z.y ",
"< 3 k t N N ; ; , < ! N 1.6.6 = , < 3.6.6.p.k = , ; b N -.z.k ; = ; g g g N g ; , ; u ! ! p.-.; = = u z.6.p.6.6 = = 3 ! N 1.6.6 ",
"< 3 k t k g ; ; , < ! N -.-.6 = , ; 6.z.6.p.k = , ; b N ! -.k ; = ; g g g k e ; , ; u ! ! -.N ; = = 6 z.p.p.6.6 = = 3 ! N -.! 6 ",
"< 3 k e t t ; ; = < ! N N N 6 ; = ; ! 6.6.6.k ; , ; ! N N N s ; = ; g g t t 5 ; , ; u ! N N k ; = ; 2 6.6.6.6.6 = , < ! N N N 6 ",
"< 5 k 5 w w ; ; , < ! k k k 6 ; = ; N 6.6.6.s ; , ; b N k N s ; = ; g t 5 e 5 ; , ; u ! k k k ; = ; 2  .6.6. .3 = < < ! k k k 6 ",
"< 5 k 5 w w ; ; , < ! N k k 6 ; = ; N / 6.` e ; , ; Y N k k 6 ; , ; g 7 5 w 5 ; , ; i ! k k g ; = ; 6 /  .,./ 3 < < 5 ! k k k 2 ",
"; 3 k e e e ; = = < ! k k k 3 = = ; k d d d 9 = = = x k k k 6 # = = g g w e w ; = = y N k k s ; = = 3 k d d d ; = = < ! k k k 3 ",
"+ ; k k d d & + + + s e 3 3 $ + + + 3 8 % % O + + + 2 e 0 3 * + + + 6 k k d e + + + < s 0 3 3 + + + $ 3 : % % o + + $ s e 3 3 $ ",
"o 3 z.z.,.,.< X X $ ! ! g s ; o X + g k w ; - o X o k ! k s 6 o X o k n.6.,.N + X o 6 ! N s s + X X ; k g 5 ; o o X ; ! ! k s < ",
"o 6 N.z.p.p.6 o o < -.x k N 6 o X $ k t w w : o X + N ! N N s + X + O.M.z.p.,.; o o u ! x N k ; o o 5 k e w w ; o o < 1.N k N 6 ",
"< u N.6.p.p.6 = = 3 ! g k k 6 ; = < k e w w : ; = ; b N k k y ; = ; O.z.6.p.,.< = ; k N k N k < = ; 6 k w w w ; ; = 3 -.k k k 6 ",
"< u N.6.6.6.6 ; , 3 -.N k N 6 ; , < k e w w 3 ; , < b N k k y ; , ; O.z.6.6.,.< = ; i ! k N k < ; < 6 k w w w ; ; = 5 -.N k g 6 ",
"< y N.6.6.6.6 = , < -.N k N 6 ; , < k e w w 3 ; , ; N N k N s ; , ; -.z.6.6.-.< = ; u ! k k k < ; ; 6 k w w w ; = = 3 -.N k k 6 ",
"< u N.6.6.6.6 = = < -.N N N 6 ; , < k e e e 3 ; , ; b N k N g ; , ; O.z.6.p.-.; = ; u ! k N k ; = ; 6 k w e e ; = = 3 -.k N N 6 ",
"< u N.6.6.6.6 = = < -.N N ! 6 = , ; k e e g 5 ; , ; b N N ! k ; , ; O.z.6.p.-.; = ; u ! k N N ; = ; 6 k w t g ; = = 3 -.k N ! 6 "
};
