/* XPM */
static char *ou3[] = {
/* columns rows colors chars-per-pixel */
"64 64 134 2 ",
"   c #055956",
".  c #065D5A",
"X  c #06615E",
"o  c #076563",
"O  c #086764",
"+  c #076966",
"@  c #086967",
"#  c #076D6A",
"$  c #086D6B",
"%  c #07716E",
"&  c #08716E",
"*  c #077572",
"=  c #097572",
"-  c #077976",
";  c #097976",
":  c #077D7A",
">  c #097D7A",
",  c #07817E",
"<  c #0A817E",
"1  c #078582",
"2  c #0A8582",
"3  c #0B8986",
"4  c #098F8D",
"5  c #0B8F8C",
"6  c #0C8F8C",
"7  c #0D8F8C",
"8  c #0C8D8A",
"9  c #0A908E",
"0  c #0B908E",
"q  c #0A918E",
"w  c #0B918E",
"e  c #09928F",
"r  c #0C908D",
"t  c #0C918E",
"y  c #0D918E",
"u  c #0C928F",
"i  c #0D928F",
"p  c #0C918E",
"a  c #099290",
"s  c #0C9390",
"d  c #0B9491",
"f  c #099592",
"g  c #0B9492",
"h  c #0B9592",
"j  c #0B9693",
"k  c #0C9491",
"l  c #0C9592",
"z  c #0C9693",
"x  c #0B9795",
"c  c #0C9794",
"v  c #0B9592",
"b  c #0B9895",
"n  c #0A9996",
"m  c #0B9996",
"M  c #0B9A97",
"N  c #0C9894",
"B  c #0C9895",
"V  c #0C9A97",
"C  c #0D9A97",
"Z  c #0C9996",
"A  c #0A9B98",
"S  c #0B9C99",
"D  c #0A9C9A",
"F  c #0B9D9A",
"G  c #0B9D9B",
"H  c #0A9E9B",
"J  c #0C9C99",
"K  c #0D9C99",
"L  c #0D9D9A",
"P  c #0C9D9B",
"I  c #0D9D9B",
"U  c #0C9E9B",
"Y  c #0D9E9B",
"T  c #0B9F9C",
"R  c #0C9E9C",
"E  c #0D9F9C",
"W  c #0C9F9D",
"Q  c #0D9F9D",
"!  c #0C9D9A",
"~  c #0BA09D",
"^  c #0BA29F",
"/  c #0CA09D",
"(  c #0DA09D",
")  c #0EA09D",
"_  c #0CA09E",
"`  c #0CA19E",
"'  c #0DA19F",
"]  c #0DA29F",
"[  c #0EA29F",
"{  c #0DA19E",
"}  c #0CA3A0",
"|  c #0EA2A0",
" . c #0EA3A0",
".. c #0EA3A1",
"X. c #0BA6A3",
"o. c #0CA4A0",
"O. c #0EA4A1",
"+. c #0CA5A2",
"@. c #0CA6A3",
"#. c #0CA7A4",
"$. c #0DA7A4",
"%. c #0DA4A2",
"&. c #0CA8A5",
"*. c #0CA8A6",
"=. c #0CA9A6",
"-. c #0DA9A6",
";. c #0CAAA7",
":. c #0CA9A6",
">. c #0CABA8",
",. c #0DACA9",
"<. c #0DACAA",
"1. c #0DADAA",
"2. c #0DAEAB",
"3. c #0DAEAC",
"4. c #0DAFAC",
"5. c #0DAFAD",
"6. c #0DADAA",
"7. c #0DB0AD",
"8. c #0DB0AE",
"9. c #0DB1AE",
"0. c #0EB2AF",
"q. c #0DB1AE",
"w. c #0EB2B0",
"e. c #0EB3B0",
"r. c #0EB4B2",
"t. c #0EB5B2",
"y. c #0EB6B3",
"u. c #0EB6B4",
"i. c #0EB7B4",
"p. c #0EB7B5",
"a. c #0EB5B2",
"s. c #0EB8B5",
"d. c #0FB8B6",
"f. c #0EB8B6",
/* pixels */
"3 > > 8 B L | ' B u 3 2 8 2 $ o $ > 2 8 u 8 < * $ $ < B s s | >.7.e.e.7.;.| ;.| L 2 ; < u B ' | ' B 8 2 2 u > @ O & < 3 8 u 3 > ",
"> 2 > < u L | ' B u 2 8 u * * $ o * 2 8 u 8 < * $ > > > L s B | 7.e.e.7.;.;.e.;.> 2 2 > 2 s L | ' B 8 2 8 8 & * o o ; 2 8 u 3 > ",
"o < 2 > 2 s L L s 3 2 8 > * $ * @ o * 2 8 2 ; $ * > $ o 2 L s L | 7.e.>.| ' | < X + 2 < > 3 s ' L u 2 3 8 * % & * o + ; 3 8 2 * ",
"* + 2 2 > < 2 2 > > 3 > < ' < $ * o o $ & $ o $ ; & 2 2 # 8 L s B L L B B ' 2 # > # $ 3 < > < 2 2 > < 3 ; 8 L * * * o o $ & @ o ",
"8 & @ 2 < > ; > > 3 > : | s.| - & * o o o o @ ; % > L | 2 # u L s u s s L 8 # > u 2 + & 3 > > ; > > 3 ; 2 >.s.B % * $ o o o o $ ",
"u 2 o $ 3 2 2 2 3 < - L e.s.e.L * & * $ $ & ; * * s ' | L ; # s ' L L ' u # * 3 u 8 > o * 3 2 2 2 8 > , | e.s.7.8 # * * $ $ & > ",
"u 3 * . $ 2 3 3 2 * s >.e.s.e.>.u # * ; > > * % 8 L ' | L 8 % % u s s u # + < 3 u 8 2 $ . ; 2 3 3 > - L 7.e.s.e.;.1 # * ; > > % ",
"u 3 > # . X o # % 3 ;.7.e.s.e.>.| 3 # o + # # 2 s L ' | L s 2 + o o + + o ; 2 3 u 8 2 ; o . o o % * s >.7.e.s.e.>.' : + o # # # ",
"u 3 > * o   . - 1 ' >.>.e.s.e.>.;.L 2 - + + > 8 s L ' | L s 8 > @ o   . & > 2 3 u 8 2 ; & X   o : 8 | >.7.e.s.e.>.| B , * + # < ",
"u 3 > * $ $ & s ' | >.>.e.s.e.>.;.| >.' < < 3 8 s L ' | L s 8 2 2 ; @ $ * > 2 3 u 8 2 ; & $ $ > L ' | >.7.e.s.e.>.| | 7.s > 2 3 ",
"u 2 > * $ $ * L L | >.>.e.s.e.>.;.| e.| 2 3 2 8 s L ' | L s 8 2 2 > & $ & > 2 3 u 8 2 ; & $ $ < | L | >.7.e.s.e.>.| ;.s.L 2 3 2 ",
"u 2 > * $ & 2 L s L ;.>.e.s.e.>.;.| ;.| u < > 3 s L ' | L s 8 2 3 8 * o @ ; 2 3 u 8 2 ; & $ * 8 L s ' >.7.e.s.e.>.| ;.;.' 3 > > ",
"u 2 > & $ < > s L s L >.e.s.e.>.;.7.7.L > 3 > > 8 L ' | L s 3 2 u 2 * $ o $ < 3 u 8 2 ; $ * 2 > L B s | >.e.s.e.>.| e.>.u > 2 > ",
"8 2 * $ ; > + $ B L s ' >.e.e.>.| | ' * . ; 3 > < u L ' L 8 2 8 2 % # * $ o & < 8 8 < & $ > * o > L s B | >.e.7.;.' ;.B # X < 2 ",
"* $ O & ; * 2 * * L B s L ' L B B L > % * o > 2 > > 3 8 2 > 2 2 ; s 8 $ * @ o $ * * @ O * * * 2 % < L s B L ' L B L B * * & + 2 ",
"o o $ ; % 2 | B * ; L B s u s s L < # 2 u ; o < 2 > ; ; > < 3 * u e.>.2 $ * O o o o o * * * u | 8 # 2 L s s s s B L * % 8 8 $ o ",
"$ $ ; % > L | | 8 # > L L L L ' 2 + ; 8 u 3 $ o 2 2 < 2 2 3 * 3 >.s.s.| : $ * $ $ # * ; % 3 L | L < + 8 L L L L L > @ < u u < + ",
"> > & * s L | ' B < + 2 L L L 8 + & 2 8 u 8 > o @ 2 8 8 8 ; , | e.e.e.7.L * & > > > > # > B ' | ' s * # 8 L L L < o ; 3 8 u 3 ; ",
"# # % 8 B L | ' B u * o o + # o + > 2 8 u 8 < & . o o # % : L >.e.e.e.7.>.s % o + # # * u B ' | ' B 8 # o o # # o $ < 3 8 u 3 > ",
"o # < u B L | ' B u 2 & o .   X * > 2 8 u 8 < * @     # : s ;.>.e.e.e.7.>.| 8 - # o & 3 s B ' | L s 8 < $ o     o ; < 3 8 u 3 > ",
"; < 8 u B L | ' B u 3 2 < $ O $ ; > 2 8 u 8 < * $ $ @ 3 L | ;.>.7.e.e.7.;.| | | 2 > 2 8 s B ' | ' B 8 2 < > @ @ & ; < 3 8 u 3 > ",
"2 3 3 u B L | | B u 3 2 2 * * $ * > 2 8 u 8 < * $ $ $ u ' ' ;.>.7.e.e.7.;.| 7.e.8 3 2 8 s B ' | ' s 8 2 2 2 & & $ ; < 3 8 u 3 > ",
"2 > < u B L | ' B u 3 2 3 < $ o & > 2 8 u 8 < * $ $ ; s B B | >.7.e.e.7.;.| ;.;.B 2 > 2 s B L | ' B 8 2 2 8 ; $ O * < 3 8 u 3 > ",
"2 2 > 2 s L | ' B u 3 3 s > * o o * 2 8 u 8 < * $ * < 8 L s L ;.7.e.e.7.;.;.e.;.3 2 > > 3 B ' | ' B 8 2 8 u * * o @ > 3 8 u 3 > ",
"o 2 < > 3 s ' ' B 8 2 u < # $ * o @ ; 3 u 8 > $ * < & o 8 L s L ;.e.e.>.| | >.8 o $ 3 > > 8 L | ' s 3 3 u ; # * & o $ > 8 u 2 ; ",
"+ $ 3 < > 2 8 8 2 < 3 < : u * & * o @ * > * @ $ ; * > > $ s L s L ' | L B L u % & + * 3 > > 3 8 8 < < 8 > 2 8 % * $ o $ * ; & @ ",
"3 $ $ 3 > > ; > > 2 2 - L e.L * * & o o o o o * * ; B L > % B B s u s s L s % * u < o ; 3 > > ; > > 3 > > | e.u # * # o o o o o ",
"u > o * 3 < < < 2 3 * u 7.s.e.s # * $ @ @ @ * * * u ' | s % * L L B B L B * $ 2 u 8 * o > 3 < < < 3 < - L e.s.>.2 # ; # @ @ $ ; ",
"u 3 & X ; 8 8 u 3 * 3 >.e.s.e.>.3 # ; > > > ; % 2 L ' | L 8 # > L ' ' L * + > 3 u 8 2 + o < 8 8 u 2 * s >.e.e.e.| : # > > > > * ",
"u 3 > o . + # % % , | 7.e.s.e.>.| , + @ # % # > s L ' | L s > o @ $ * % o * 2 3 u 8 2 ; X X + # * * 8 >.7.e.s.e.>.L * + + # % # ",
"u 3 > & X   . * : L >.>.e.e.e.>.;.L : % o + * 8 s L ' | L s 8 * o X . . $ > 2 3 u 8 2 ; $ .   o * 1 | >.7.e.s.e.>.| s * # o + > ",
"u 3 > * $ O $ 8 L | >.7.e.s.e.>.;.' | B > > 2 u s L ' | L s 8 2 > * o @ * > 2 3 u 8 2 ; & $ O * s L ;.>.7.e.s.e.>.| | | 8 ; > 3 ",
"u 3 > * $ $ * L ' | >.>.e.s.e.>.;.| s.;.2 8 2 8 s L ' | L s 8 2 2 > & $ * > 2 3 u 8 2 ; & $ $ < | ' | >.7.e.s.e.>.| ;.d.L 2 3 3 ",
"u 3 > * $ $ > L s L >.>.e.s.e.>.;.| >.| 8 2 > 8 s L ' | L s 8 2 2 2 & @ $ > 2 3 u 8 2 ; & $ & 3 L s | >.7.e.s.e.>.| | >.L 3 < > ",
"u 2 > & $ > 2 B s s | >.e.s.e.>.| >.>.| 2 2 > < u L ' | L s 3 2 8 3 * $ o & < 8 u 8 2 ; & & < 2 L s B | 7.e.s.e.>.| 7.>.L 2 < > ",
"u 2 ; $ * < + * L B B | 7.e.e.>.| | ;.< o < 2 > 2 s ' | L u 2 8 8 & $ * @ o * 2 u 8 2 * $ > ; o 2 L s L ;.7.e.e.>.| >.' * + 2 < ",
"> * @ $ > * > $ > L B B ' ;.| L L ' 2 # $ @ 2 2 > 2 8 s 8 < 2 8 ; 3 > $ * o o * > > & @ * ; * ; # 8 L s B | ;.| L L L > # + $ 3 ",
"o o @ ; & > L u # 2 L s s s s s L 8 # > 8 * @ 2 < > > > > > 3 ; 2 >.;.> & * o o o o o $ ; % 3 ' 2 # u L s s s s B L > # 2 3 # $ ",
"O @ ; * ; s | ' 2 # 8 L B s B L u # * 8 u 2 @ $ 3 < > > > 3 > , | e.e.L * * * o o o $ ; & < L | L > # s L s s B L 2 + > 8 u > o ",
"> > * % 8 L | ' B > # u | | | s # $ 2 8 u 8 ; X & 8 u u u > - L 7.e.e.7.s % * > > > > & ; s ' | ' u % % L | | | 8 + * 3 8 u 3 * ",
"& & # 2 B L | ' B 8 & + & * ; # o > 2 8 u 8 < $ . # # * * * s >.7.e.e.7.;.3 # + $ & % % 8 B L | ' B 2 # $ & * ; + # < 3 8 u 3 > ",
"o + > u B L | ' B u 2 # o . . X * > 2 8 u 8 < * o     # * 8 ;.>.7.e.e.7.>.' 1 % + o # 2 s B L | ' B 8 > o X . . o ; < 3 8 u 3 > ",
"* > 3 u B L | | B u 3 < ; + X $ ; > 2 8 u 8 < * $ o o < s | ;.>.7.e.e.7.;.| ' B < * < 8 s B L | ' B 8 2 > * o o & ; < 3 8 u 3 > ",
"2 3 3 u B L | | B u 3 2 2 * & $ * > 2 8 u 8 < * $ $ $ u | | ;.>.7.e.e.7.;.| 7.e.8 3 2 8 s B ' | ' s 8 2 2 2 $ & & ; < 3 8 u 3 > ",
"2 < 2 u B L | ' B u 3 2 2 > $ @ * > 2 8 u 8 < * $ $ * s L L ;.>.7.e.e.7.;.| >.;.s 2 > 3 s B ' | ' s 8 2 2 2 * $ @ * < 3 8 u 3 > ",
"3 > > 3 s L | ' B u 2 2 u < * o @ ; 2 8 u 8 < * $ * 2 s B s L >.e.e.e.7.;.;.7.;.s 3 > > 8 B ' | ' B 8 2 3 u > $ o $ > 3 8 u 3 > ",
"$ 3 > > 8 L | | B 8 2 8 3 # * & o $ > 8 u 8 < & & < * $ B B s ' >.e.s.7.;.| >.B + * 3 > < u L | ' s 3 2 u > # * $ o & < 8 u 3 > ",
"o * 3 > > 3 s s 8 < 3 3 ; 2 % * $ o $ > 2 > $ $ ; * * & * L B s ' ;.>.| L L B * + o > 3 > < 8 s s 3 < 8 < > < $ * @ o & > 2 ; $ ",
"< + * 3 > > > > > < 3 * u 7.s # * $ o o O o o * * * s B * ; L B s s s s B L * & 8 > o < 2 > > > > > 2 < - L >.2 # * o o o o o o ",
"u ; o > 2 > > > < 3 ; 3 >.s.7.3 # * $ o o o & ; % 3 ' | u # > L B s s B L > # 2 u 8 & O 2 2 > > > 2 2 * s e.s.;.: # * o o o o * ",
"u 2 $ o < u 8 u 8 ; , | e.s.e.;., # > > > > ; # < L ' | L 2 + 2 | | | | < + > 8 u 8 < o @ 3 u u u 3 * 8 >.e.s.e.L * & > > > > ; ",
"u 3 > o o * * ; * : ' 7.e.s.e.>.L - # $ & * # ; s L ' | L s ; o * ; > > o & 2 3 u 8 2 * . @ * * ; * 1 | 7.e.s.e.>.s % $ $ * * # ",
"u 2 > & . . . % - s >.>.e.s.e.>.;.s * # o + % 8 s L ' | L s 3 & o X . . + > 2 3 u 8 2 ; $ . . o % : ' >.7.e.s.e.>.| 8 % # o + * ",
"u 2 > * $ X o 2 s | >.>.e.s.e.>.;.' L 8 * * 2 u s L ' | L s 8 2 * $ . o * > 2 3 u 8 2 ; & O X # 8 L ;.>.7.e.s.e.>.| ' B 2 & ; 3 ",
"u 3 > * $ $ * L ' | >.7.e.s.e.>.;.| e.;.2 3 3 8 s L ' | L s 8 2 2 > $ $ * > 2 3 u 8 2 ; & $ $ < | ' | >.7.e.s.e.>.| | s.L 2 3 3 ",
"u 3 > * $ $ ; L B ' >.7.e.s.e.>.;.| 7.| 3 2 < 8 s L ' | L s 8 2 2 < $ $ $ > 2 3 u 8 2 ; & $ $ 2 L B | >.7.e.s.e.>.| | 7.L 2 2 < ",
"u 2 > * $ * 2 L s B | >.e.s.e.>.;.>.>.| 8 2 ; 2 s L ' | L s 8 2 8 8 * O o * 2 3 u 8 2 ; & $ > 8 L s L ;.7.e.s.e.>.| >.;.' 3 > > ",
"u 3 > $ * < $ < L s B | 7.s.e.>.| >.>.8 $ 2 < > 2 s ' | L s 3 3 u * $ * o + ; 3 u 8 2 * $ ; > # 8 L s L >.e.s.e.>.| >.;.> & 3 > ",
"2 > $ $ > * & # 3 L s L | >.>.| L ' u # X $ 3 < > 3 s B s 2 2 8 > : * & * o # ; 2 2 * $ & > % $ # s L s L ;.>.;.' L | 2 + X * 8 ",
"@ o O * * ; B 3 # 8 L s s s s s L s % ; 3 $ & 3 > > > > > > 3 > > ;.L * * & o o @ O o $ ; % 2 B > % B B s s s s s L 3 # < < + * ",
"o o * * * u | L > # s L s s s L B * & 3 s < o * 3 > > > > 3 < - L e.e.s % * $ o o o @ ; & > B | B * * L B s s s L 8 # ; 8 u ; o ",
"; ; * % 3 L | | s * # B | | | L * + < 8 u 8 * X ; 8 8 8 8 2 * s 7.e.e.>.8 # ; ; ; ; > * * u ' | ' 8 # > ' | | | s # & 2 8 u 2 $ ",
"* * # < B L | ' L 8 # & > 2 2 ; o ; 2 8 u 8 < + X * ; > > * 8 >.7.e.e.7.| , # & * * * % 3 B L | ' B < + * < 2 2 % + > 3 8 u 3 > ",
"+ # * u B L | ' L u > o o o o X # > 2 8 u 8 < * X . . # % 1 | >.7.e.e.7.>.L - + o # # > s B L | ' B 8 * o o o o X * < 3 8 u 3 > "
};
