/* XPM */
static char *ou4[] = {
/* columns rows colors chars-per-pixel */
"64 64 169 2 ",
"   c #012C2F",
".  c #012E31",
"X  c #013235",
"o  c #013639",
"O  c #013A3D",
"+  c #013E42",
"@  c #014146",
"#  c #00454B",
"$  c #00494E",
"%  c #004D53",
"&  c #004F58",
"*  c #015157",
"=  c #01575E",
"-  c #00565F",
";  c #00575F",
":  c #00565E",
">  c #00555D",
",  c #00535B",
"<  c #01585E",
"1  c #01585F",
"2  c #005660",
"3  c #005760",
"4  c #005761",
"5  c #005760",
"6  c #015860",
"7  c #015960",
"8  c #005861",
"9  c #005961",
"0  c #015A61",
"q  c #005862",
"w  c #005962",
"e  c #005963",
"r  c #005A62",
"t  c #015A62",
"y  c #015B62",
"u  c #005A63",
"i  c #005B63",
"p  c #015C62",
"a  c #015C63",
"s  c #015D63",
"d  c #005A64",
"f  c #005B64",
"g  c #005B65",
"h  c #005B66",
"j  c #015D64",
"k  c #005C65",
"l  c #015D65",
"z  c #015E64",
"x  c #005D66",
"c  c #005C67",
"v  c #015E66",
"b  c #015F66",
"n  c #005E67",
"m  c #015E67",
"M  c #005F67",
"N  c #015F67",
"B  c #005B64",
"V  c #005D68",
"C  c #005D69",
"Z  c #005F68",
"A  c #005E69",
"S  c #005E6A",
"D  c #005F6A",
"F  c #005E69",
"G  c #016067",
"H  c #016167",
"J  c #016067",
"K  c #006068",
"L  c #016068",
"P  c #016168",
"I  c #006069",
"U  c #006169",
"Y  c #016169",
"T  c #006269",
"R  c #016269",
"E  c #00616A",
"W  c #01616A",
"Q  c #00606B",
"!  c #00616B",
"~  c #01616B",
"^  c #00626A",
"/  c #01626A",
"(  c #01626B",
")  c #01636B",
"_  c #00606C",
"`  c #01616C",
"'  c #00616D",
"]  c #00626C",
"[  c #01636C",
"{  c #00626D",
"}  c #00636D",
"|  c #01636D",
" . c #00626E",
".. c #00636E",
"X. c #01636E",
"o. c #00636F",
"O. c #01646C",
"+. c #01646D",
"@. c #01646E",
"#. c #01656E",
"$. c #00646F",
"%. c #01656F",
"&. c #01626B",
"*. c #006370",
"=. c #006470",
"-. c #006570",
";. c #016570",
":. c #006471",
">. c #006571",
",. c #016571",
"<. c #016670",
"1. c #016770",
"2. c #016671",
"3. c #016771",
"4. c #006572",
"5. c #006672",
"6. c #016672",
"7. c #016772",
"8. c #006673",
"9. c #006773",
"0. c #016773",
"q. c #006774",
"w. c #006671",
"e. c #016870",
"r. c #016871",
"t. c #016971",
"y. c #016972",
"u. c #016873",
"i. c #016973",
"p. c #006874",
"a. c #016874",
"s. c #016974",
"d. c #016875",
"f. c #016975",
"g. c #016A74",
"h. c #016A75",
"j. c #016B75",
"k. c #016976",
"l. c #016A76",
"z. c #016B76",
"x. c #016A77",
"c. c #016B77",
"v. c #016C76",
"b. c #016C77",
"n. c #016D77",
"m. c #016A75",
"M. c #016B78",
"N. c #016C78",
"B. c #016D78",
"V. c #016C79",
"C. c #016D79",
"Z. c #016E78",
"A. c #016F78",
"S. c #016E79",
"D. c #016F79",
"F. c #016E7A",
"G. c #016F7A",
"H. c #016F7B",
"J. c #016E79",
"K. c #01707A",
"L. c #01707B",
"P. c #01707C",
"I. c #01717C",
"U. c #01727C",
"Y. c #01737C",
"T. c #01737D",
"R. c #01747E",
"E. c #01727C",
"W. c #017580",
/* pixels */
"K > $ $ % x x > $ $ > x x % $ $ > K x % $ % x K 3 $ $ % x C > $ $ > x x > $ $ > x x % $ $ > K x % $ % 3 K 3 $ $ % x K > $ $ > x ",
"g.C % $ 3 7.g.x $ $ x g.7.3 $ % C g.K > $ % K g.K % $ > 7.g.C % $ 3 7.g.x $ % x g.7.> $ % C g.K > $ * K g.K % $ > 7.g.C % $ x 7.",
"F.K > * x g.F.C * * C F.g.x * > K F.g.> * > 7.F.7.> * > g.F.K * * x g.F.x * * C F.g.x * > K F.7.> > > 7.F.7.> > 3 g.F.K * * x g.",
"F.K K K K g.F.K K K K F.g.K G K 7.F.7.K G K 7.F.7.K G K g.F.K K K K g.F.K K K K F.g.K K K 7.F.7.K G K 7.F.7.K K K g.F.K K K K g.",
"F.g.$ o K F.F.7.+ + 7.F.F.K o $ g.U.F.x X % F.F.F.% X < F.F.g.$ o K F.F.7.+ + g.F.F.K o $ g.F.F.> X * F.F.g.% X x F.F.g.$ o K F.",
"U.% . . O 7.F.$ . . @ F.g.O . . % U.G o . X > U.> X . o x U.% . . O g.g.@ . . $ F.7.O . X % U.x X . X > U.> X . o K U.$ . . + 7.",
"K % @ @ $ x x % @ @ % x x $ @ $ % K > $ @ $ > K > $ @ $ > K % $ @ % x x % @ @ % x x $ @ $ % K > $ @ $ > K > $ @ $ > K % @ @ % x ",
"K > $ $ > x C > $ $ > C x % $ $ > K x % $ % x K 3 % $ % x K > $ $ > x x > $ $ > C x % $ $ > K x % $ % x K 3 % $ % x K > $ $ > x ",
"g.C % $ x g.g.x $ % x g.g.3 $ % K g.7.> $ * K g.K % $ > 7.g.C % $ x g.g.x $ % C g.7.3 $ % K g.7.> $ > K g.K % $ > 7.g.C % $ x g.",
"F.K > > x F.F.C > > C F.g.x > > K F.g.> > > 7.F.7.> > 3 g.F.K > > x g.F.x > > C F.g.x > > K F.7.> > > 7.F.7.> > x g.F.K > > x g.",
"F.7.K x 7.g.F.7.x x 7.F.g.K x K 7.F.g.K x K 7.F.7.K x K g.F.7.K x 7.g.F.K x x 7.F.g.K x K 7.F.7.K x K 7.F.7.K x K g.F.7.K x 7.g.",
"U.g.@ X x U.U.K O o K U.F.x X + g.U.F.> X $ g.U.g.$ X > F.U.g.@ X x U.U.K o O K U.F.x X @ g.U.F.> . $ F.U.g.$ X > F.U.g.+ X x U.",
"U.% X X O K g.@ X X + g.K O X X $ U.x o X X > U.> X X o x U.$ X X O K g.+ X X @ g.K O X X $ U.x o X X > U.* X X o x U.$ X X O K ",
"K > $ @ % x x % $ $ % x x % @ $ > K > $ @ $ > K > $ @ % 3 K & $ @ % x x % @ $ % x x % @ $ > K > $ @ $ > K > $ @ % x K & $ @ % x ",
"K > $ $ > C K > $ $ > K x > $ $ 3 K x % $ % x K x % $ % x K > $ $ > C C > $ $ > K x > $ $ 3 K x % $ % x K 3 % $ % x K > $ $ > x ",
"g.K % $ x g.g.x % % C g.g.x $ % K F.7.> $ > 7.F.K * $ > 7.g.C % $ x g.g.x % % C g.g.3 $ % K F.7.> $ > 7.F.K % $ > 7.g.C % $ x g.",
"F.K > x x g.F.C > < C F.g.x < > K F.7.> x > 7.F.7.> x x g.F.K > < x g.F.x > > C F.g.x < > K F.7.> x > 7.F.7.> x x g.F.K > < x g.",
"F.7.G > 7.g.F.7.x x 7.F.g.7.> x 7.F.g.K > K g.F.7.K > 7.g.F.7.x < 7.g.F.7.x x 7.F.g.7.< K g.F.g.K > K g.F.7.K > 7.g.F.7.x < 7.g.",
"U.7.+ . > U.U.x o X x U.U.> . O K U.F.% . @ g.U.g.$ . % F.U.K O . > U.U.x X o x U.U.> . + K U.F.% . $ g.U.g.@ . % F.U.K O X > U.",
"F.$ X X O K g.+ X X + g.K O X X $ F.x o X X % U.% o X o x g.$ X X O K g.+ X X @ g.K O X X $ F.> o X o * U.% X X o x g.$ X X O K ",
"K > $ $ % x x % $ $ > x x % $ $ > C 3 % $ $ > x > $ $ % x x > $ $ % x x % $ $ & x x % $ $ > x > % $ $ > K > $ $ % x x > $ $ % x ",
"K 3 $ $ > C K > $ $ > K C > $ $ x K x % $ % x K x % $ % x K 3 $ $ > C K > $ $ > K C > $ $ x K x % $ % x K x % $ * C K 3 $ $ > C ",
"F.K % $ x g.g.x % % C F.g.x $ % K F.7.> $ > 7.F.7.* $ > g.F.K % $ x g.g.x % % C F.g.x $ % K F.7.> $ > 7.F.7.% $ > g.F.C % % x g.",
"F.K < x x g.F.C x x C F.g.x x x K F.7.x x x 7.F.7.> x x g.F.K < x x g.F.x x x C F.g.x x x K F.7.3 x x 7.F.7.> x x g.F.K < x x g.",
"F.g.x * g.F.F.g.> > g.F.g.7.> x g.F.g.K % K g.F.g.K % K g.F.g.x > g.F.F.g.> > g.F.g.7.* x g.F.g.K % K g.F.g.K % 7.g.F.g.x > g.g.",
"U.K o . % U.U.x X X < U.U.* . o K U.g.$   + g.U.g.+   $ g.U.K o . % U.U.< X X x U.U.% . o K U.g.$   + g.U.7.+   $ F.U.K o . * U.",
"g.$ o o O x 7.@ o o + K x + o o $ g.> O o o % g.% o o O > g.$ o o + x K + o o @ 7.x + o o $ g.> O o o % g.% o o O x g.$ o o + x ",
"x > $ $ % x x > $ $ > x x % $ $ > x x % $ % > C > $ $ % x x > $ $ % x x > $ $ > x x % $ $ > x x % $ % 3 x > $ $ % x x > $ $ % x ",
"K x $ $ > K K > $ $ 3 K K > $ % x K C % $ % x K x % $ > C K x $ $ > K K > $ $ 3 K K > $ % x K C % $ % x K x % $ > C K 3 $ $ > K ",
"F.K % % x g.F.C % % C F.g.x % % K F.g.> $ > 7.F.7.> % > g.F.K % % x g.F.x % % C F.g.x % % K F.7.> $ > 7.F.7.* $ > g.F.K % % x g.",
"F.K x G x g.F.C x x C F.g.x G x K F.7.x K x 7.F.7.x K x g.F.K x G x g.F.C x x C F.g.x G x K F.7.x K x 7.F.7.x K x g.F.K x G x g.",
"F.g.x $ g.F.F.g.* * g.F.g.g.% < g.F.g.K $ x g.F.g.x $ K F.F.g.< % g.F.F.g.* * g.F.g.7.$ x g.F.g.K $ K g.F.g.x $ K F.F.g.> % g.g.",
"U.x X . $ U.U.> . . > U.U.$ . X x U.g.@   O K U.K O   @ g.U.x X   $ U.U.> . . > U.F.$   X x U.g.+   O K U.K O   @ g.U.x X . % U.",
"g.$ O O + x K @ O O @ K x + O O $ g.> + O O % g.% O O + > g.$ O O + x K @ O O @ K x + O O $ g.> O O O % g.% O O + > g.$ O O + x ",
"x > $ $ % x x > $ $ > x x % $ $ > C x % $ % 3 x 3 % $ % x x > $ $ & x x > $ $ > x x % $ $ > x x % $ % 3 x > $ $ % x x > $ $ > x ",
"7.x % $ > K K 3 $ $ 3 K K > $ % x 7.K * $ % C 7.C % $ > K 7.x % $ > K K > $ $ x K K > $ % x 7.C % $ % C 7.x % $ > K K x $ $ > K ",
"F.K % % x F.F.C % % C F.g.x % % K F.g.> % > 7.F.7.> % > g.F.K % % x g.F.x % % C F.g.x % * K F.7.> % > 7.F.7.* % 3 g.F.K % % x g.",
"F.K x K C g.F.C x G C F.g.x K x K F.7.x K x 7.F.7.x K x g.F.K x K C g.F.C G K K F.g.x K x K F.7.x K x 7.F.7.x K x g.F.K x K C g.",
"F.g.> @ 7.F.F.g.% $ g.F.F.7.$ > g.F.g.K @ x F.F.g.x + K F.F.g.> $ g.F.F.g.$ % g.F.g.7.$ > F.F.g.K + x F.F.g.x @ K F.F.g.* $ g.F.",
"U.< X   @ g.U.% . . % U.F.$ . X > U.g.O   o G W.K o   O g.U.> X . $ F.U.% . . % U.g.$ . X < U.7.O   o K W.x X   + g.U.> X . $ F.",
"K % + O @ x K $ + + $ K x @ O + $ K > + O + % g.% + O + > K $ + O @ x K $ + + $ K x @ O + % K > + O + % 7.% + O + > K $ + + $ x ",
"C > $ $ % x x > $ $ > x x % $ $ > C x % $ % 3 C 3 % $ % x x > $ $ % x x > $ $ > x x % $ $ > C x % $ % x x > $ $ % x x > $ $ > x ",
"g.x % $ > K 7.x $ $ x 7.K > $ % x g.K > $ % K g.C % $ > K g.x % $ > K 7.3 $ $ x 7.K > $ % C g.K > $ % K g.C % $ > K 7.x % $ 3 K ",
"F.K % % x g.F.C % % C F.g.x % * K F.g.> % > 7.F.7.> % > g.F.K % % x g.F.C % % C F.g.x % * K F.7.> % > 7.F.7.> % 3 g.F.K % % x g.",
"F.K K K K g.F.K K K K F.g.C K K 7.F.7.C K K 7.F.7.x K K g.F.K K K K g.F.K K K K F.g.C K K 7.F.7.C K K 7.F.7.C K K g.F.K G K K g.",
"F.g.% + K F.F.g.$ $ g.F.F.K + % g.F.F.x O > F.F.F.> O x F.F.g.% + K F.F.g.$ $ g.F.F.K + % g.F.F.x O > F.F.F.> O K F.F.g.% + K F.",
"U.> X . + g.U.$ . . $ U.g.+ . . * U.K o . X x W.x X . o K U.> . . + g.U.$ . . $ U.g.+ . X > U.K o . X x W.x X . O K U.* . . @ g.",
"K % @ + $ x K $ + + $ K x $ + @ % K > $ + @ * K % @ + $ > K % + + $ x C $ + + $ K x $ + @ % K > @ + @ > K % @ + $ > K % + + $ x ",
"K > $ $ > x x > $ $ > x x % $ $ > K x % $ % x K 3 % $ % x C > $ $ > x x > $ $ > x x % $ $ > K x % $ % x K 3 % $ % x C > $ $ > x ",
"g.C % $ 3 7.g.x $ % x g.7.> $ % C g.K > $ % K g.K % $ > K g.C % $ 3 7.7.x $ % x g.7.> $ % C g.K > $ * K g.C % $ > 7.g.x % $ x 7.",
"F.K * * x g.F.C * * C F.g.x * > K F.g.> * > 7.F.7.> * > g.F.K * * x g.F.x * * C F.g.x * > K F.7.> * > 7.F.7.> * 3 g.F.K * * x g.",
"F.K K K K g.F.K K K K F.g.K K K 7.F.7.K K K 7.F.7.K G K g.F.K K K K g.F.K K K K F.g.K G K 7.F.7.K K K 7.F.7.K K K g.F.K K K K g.",
"F.g.$ o K F.F.7.+ + 7.F.F.K O $ g.F.F.x X * F.F.F.* X x F.F.g.$ o K F.F.7.+ + g.F.F.K o $ g.U.F.< X * F.F.g.% o x F.F.g.$ O K F.",
"U.% . . O g.U.$ . . @ F.g.O . . % U.K o . X > U.> X . o K U.% . . O g.F.@ . . $ U.g.O . . % U.G o . X < U.> X . o K U.% . . + g.",
"K % @ @ $ x x % @ @ % x x $ @ $ % K > $ @ $ > K > $ @ $ > K % @ @ $ x x % @ @ % C x $ @ $ % K > $ @ $ > K > $ @ $ > K % @ @ % x ",
"K > $ $ > x C > $ $ > x x % $ $ > K x % $ % x K 3 % $ % x K > $ $ > x x > $ $ > C x % $ $ > K x % $ % x K 3 % $ % x K > $ $ > x ",
"g.C % $ x g.g.x % % x g.7.3 $ % C g.7.> $ * K g.K % $ > 7.g.C % $ x g.g.x $ % x g.7.3 $ % K g.7.> $ > K g.K % $ > 7.g.C % $ x g.",
"F.K > > x F.F.C > > C F.g.x > > K F.g.> > > 7.F.7.> > 3 g.F.K > > x g.F.x > > C F.g.x > > K F.7.> > > 7.F.7.> > x g.F.K > > x F.",
"F.7.K x 7.g.F.K x x 7.F.g.K x K 7.F.g.K x K 7.F.7.K x K g.F.7.K x K g.F.K x x 7.F.g.K x K 7.F.7.K x K 7.F.7.K x K g.F.7.K x K g.",
"U.g.@ X x U.F.K O O K U.F.x X @ g.U.F.> X $ g.U.g.% X > F.U.g.@ X x U.F.K O O K U.F.x X @ g.U.F.> X % F.U.g.$ X > F.U.g.+ X x U.",
"U.% X X O K g.@ X X + g.K O X X $ U.x o X X > U.> X X o x U.$ X X O K g.+ X X @ g.K O X X $ U.x X X X > U.* X X o x U.$ X X O K ",
"K > $ @ % x x % $ $ % x x % @ $ > K > $ @ $ > K > $ @ $ > C % $ @ % x x % $ $ % x x % @ $ > K > $ @ $ > K > $ @ % x K % $ @ % x ",
"K > $ $ > x C > $ $ > K x > $ $ 3 K x % $ % x K x % $ % x K > $ $ > C C > $ $ > K x > $ $ 3 K x % $ % x K 3 % $ % x K > $ $ > x ",
"g.K % $ x g.g.x % % x g.g.3 $ % K F.7.> $ > K g.K * $ > 7.g.C % $ x g.g.x % % C g.g.3 $ % K g.7.> $ > 7.g.K % $ > 7.g.C % % x g."
};
