/* XPM */
static char *ou_sprite[] = {
/* columns rows colors chars-per-pixel */
"40 64 242 2 ",
"   c None",
".  c #571F1F",
"X  c #601C1B",
"o  c #60221F",
"O  c #592323",
"+  c #5F2420",
"@  c #5F2521",
"#  c #5F2F26",
"$  c #5D2F28",
"%  c #4B362E",
"&  c #4D372F",
"*  c #4E372F",
"=  c #5F3129",
"-  c #5F332C",
";  c #5F372C",
":  c #5D392D",
">  c #5F392D",
",  c #593C2E",
"<  c #533C33",
"1  c #573C31",
"2  c #563D32",
"3  c #573E33",
"4  c #5D3B30",
"5  c #5C3B31",
"6  c #5C3832",
"7  c #5F3932",
"8  c #593C30",
"9  c #583C32",
"0  c #593D32",
"q  c #593C33",
"w  c #583D33",
"e  c #5A3D32",
"r  c #593E33",
"t  c #5A3E32",
"y  c #5B3E32",
"u  c #5B3E33",
"i  c #5D3C31",
"p  c #5E3C30",
"a  c #5E3D31",
"s  c #5E3D32",
"d  c #5D3934",
"f  c #553F38",
"g  c #602420",
"h  c #602521",
"j  c #602620",
"k  c #602622",
"l  c #612822",
"z  c #602923",
"x  c #622823",
"c  c #632923",
"v  c #612924",
"b  c #602F27",
"n  c #603028",
"m  c #61322A",
"M  c #61322B",
"N  c #62362B",
"B  c #61362C",
"V  c #60362D",
"C  c #62372C",
"Z  c #60352F",
"A  c #63382B",
"S  c #63382E",
"D  c #613931",
"F  c #663F37",
"G  c #7A3B37",
"H  c #7C3835",
"J  c #7C3935",
"K  c #7E3B37",
"L  c #7E3C37",
"P  c #7F3C38",
"I  c #5B4138",
"U  c #5A4238",
"Y  c #5B4339",
"T  c #5F4339",
"R  c #5F463C",
"E  c #644035",
"W  c #67433B",
"Q  c #65473B",
"!  c #60463C",
"~  c #60473C",
"^  c #60463E",
"/  c #62473E",
"(  c #63463F",
")  c #6A423B",
"_  c #6C463F",
"`  c #62483E",
"'  c #63483E",
"]  c #66493C",
"[  c #65483E",
"{  c #65493E",
"}  c #65493F",
"|  c #654B3E",
" . c #674B3E",
".. c #68493D",
"X. c #694A3E",
"o. c #6A4B3F",
"O. c #6D4C3D",
"+. c #6F4C3F",
"@. c #7B433D",
"#. c #7D423C",
"$. c #7F433D",
"%. c #7B453E",
"&. c #754B3E",
"*. c #74503F",
"=. c #654A40",
"-. c #674D46",
";. c #684A40",
":. c #684B40",
">. c #6E4A41",
",. c #684D40",
"<. c #6B4C40",
"1. c #6A4E41",
"2. c #694D42",
"3. c #6A4E42",
"4. c #6B4F43",
"5. c #6D4F41",
"6. c #6C4F43",
"7. c #694E45",
"8. c #6F4D44",
"9. c #704F40",
"0. c #744D42",
"q. c #714E44",
"w. c #7C4840",
"e. c #7E4941",
"r. c #7C4A42",
"t. c #794D43",
"y. c #6E5143",
"u. c #6F5143",
"i. c #6F5044",
"p. c #6E5144",
"a. c #6D5245",
"s. c #6F5244",
"d. c #735143",
"f. c #705243",
"g. c #755443",
"h. c #715144",
"j. c #735144",
"k. c #705244",
"l. c #735345",
"z. c #755144",
"x. c #765045",
"c. c #745244",
"v. c #765345",
"b. c #755146",
"n. c #715445",
"m. c #745446",
"M. c #745546",
"N. c #745647",
"B. c #765647",
"V. c #785044",
"C. c #785145",
"Z. c #795145",
"A. c #7A5346",
"S. c #7D5347",
"D. c #7E5347",
"F. c #785446",
"G. c #785547",
"H. c #7A5546",
"J. c #7C5447",
"K. c #745548",
"L. c #765548",
"P. c #7B5348",
"I. c #7E5348",
"U. c #7A5548",
"Y. c #7B5548",
"T. c #7C5548",
"R. c #7F5548",
"E. c #7E5648",
"W. c #7E5749",
"Q. c #7F5749",
"!. c #7F544A",
"~. c #7E574B",
"^. c #795849",
"/. c #7A5849",
"(. c #7B594A",
"). c #7C5949",
"_. c #7E594C",
"`. c #7F5D4D",
"'. c #82413C",
"]. c #81423C",
"[. c #81443D",
"{. c #80443E",
"}. c #80453E",
"|. c #82463E",
" X c #82463F",
".X c #84453E",
"XX c #84463F",
"oX c #834740",
"OX c #844740",
"+X c #854740",
"@X c #834B41",
"#X c #844840",
"$X c #854840",
"%X c #844B42",
"&X c #834C45",
"*X c #834E44",
"=X c #844D44",
"-X c #854D44",
";X c #844E44",
":X c #854E45",
">X c #864E45",
",X c #864F45",
"<X c #844D47",
"1X c #854F46",
"2X c #874F48",
"3X c #815146",
"4X c #835246",
"5X c #835247",
"6X c #875147",
"7X c #855049",
"8X c #875148",
"9X c #875149",
"0X c #815548",
"qX c #815449",
"wX c #815549",
"eX c #825449",
"rX c #825549",
"tX c #875549",
"yX c #85574A",
"uX c #86564A",
"iX c #895548",
"pX c #8B5448",
"aX c #8B574B",
"sX c #82584A",
"dX c #815B4B",
"fX c #87584B",
"gX c #86594B",
"hX c #845A4C",
"jX c #875D4E",
"kX c #8B5A4C",
"lX c #8D5B4C",
"zX c #885D4E",
"xX c #8F5C4F",
"cX c #865F51",
"vX c #815C54",
"bX c #8A5F53",
"nX c #8A5F54",
"mX c #8A6154",
"MX c #8A6055",
"NX c #8A6155",
"BX c #8B6156",
"VX c #876158",
/* pixels */
"                                                                                ",
"  n     b     #     n     n n   n -   - $                                       ",
"  <     %     %     %                                                           ",
"                                                                                ",
"  5X    tX    aX    aX    5X    5Xe.    e.                                      ",
"  Y     !                                                                       ",
"                                                                                ",
"  fX    xX    xX    xX    tXtX  tXtX  tXtX                                      ",
"  Y     {     !     !     Y           { {                                       ",
"                                                                                ",
"  *X    *X    *X    *X    e.    e.    %.                                        ",
"  !     =.    !     Y                                                           ",
"                                                                                ",
"  b     b     b     b     j             j     b                                 ",
"  <     <     ,                                                                 ",
"                                                                                ",
"  *X    *X    *X    *X    *X    *X            %.                                ",
"  {     {     {     !     ..    ..            !                                 ",
"                                                                                ",
"  5X    tX    tX    tX    *X    *X            2X                                ",
"  4.    a.    4.    =.                                                          ",
"                                                                                ",
"  }.    }.    %.    %.                                                          ",
"  4.    4.    4.    4.                                                          ",
"                                                                                ",
"  j     j     j     o     j     +                   +                           ",
"  9     9     9     9     9     9 9   9 9     9     <                           ",
"                                                                                ",
"  }.    }.    }.    }.                              G                           ",
"  a.    M.    M.    9.    ..    *.{     {     4.    4.                          ",
"                                                                                ",
"  *X    +X    +X    }.    }.    }.                  +X                          ",
"  M.    M.    M.    M.    a.    a.a.  4.a.  M.M.    M.                          ",
"                                                                                ",
"  G     G     G                                                                 ",
"  M.    K.    K.    4.    4.    ..    4.            M.                          ",
"                                                                                ",
"  X                                                                             ",
"  9     ,     ,     9     9 9   9 9                                             ",
"                                                                                ",
"                                                                                ",
"  F.    ~.    M.    M.    M.    M.                                              ",
"                                                                                ",
"  K     K                                                                       ",
"  (.    fX    (.    (.    M.(.  M.(.                                            ",
"                                                                                ",
"                                                                                ",
"  ~.    ~.    M.    9.    4.F.    F.                                            ",
"                                                                                ",
"                                                                                ",
"  -     A     A     n     n     n       9     9     9     F     n     n     n   ",
"                                                                                ",
"                                                                                ",
"  ~.    fX    ~.    ~.    ~.    ..    M.)     4.    9.    F.    F.    ~.    F.  ",
"                                                                                ",
"                                                                                ",
"  fX    cX    fX    fX    mX    VX    cX            mX    mX    bX    mX    bX  ",
"  <                                                                             ",
"                                                                                ",
"  tX    tX    ~.    ~.    e.    F     ) F.  ) F.    ~.    ~.    ~.    ~.    F.  ",
"                                                                                ",
"                                                                                ",
"  fX    fX    aX    +X                                                          ",
"  Y     E     &.    M.    mX    + .                                             "
};
